<svg width="514" height="144" viewBox="0 0 514 144" fill="none" xmlns="http://www.w3.org/2000/svg">
<path d="M85.1371 4.97478L92.9942 11.7857L7.85714 110L0 103.189L85.1371 4.97478Z" fill="#08A45B"/>
<path d="M103.211 0L111.068 6.81097L25.9307 105.025L18.0736 98.2143L103.211 0Z" fill="#E43437"/>
<path d="M42.92 68.968C42.92 53.48 47.144 34.28 62.76 34.28C77.096 34.28 83.368 54.12 87.848 70.248C90.024 77.544 90.792 82.408 91.688 89.704C92.456 83.432 93.992 75.752 96.04 66.664C98.216 57.704 101.16 45.288 106.664 45.288C110.76 45.288 112.296 52.2 113.448 57.064C117.16 73.064 118.056 87.4 126.376 101.224C129.448 106.088 132.264 109.928 137.384 111.336C137.768 111.464 138.024 111.848 138.024 112.36C138.024 113 137.512 113.256 136.872 113.256C132.52 113.256 129.064 111.848 125.352 109.032C118.44 103.656 115.496 96.744 113.32 89.832C109.992 78.568 108.968 69.992 105.768 59.88C105.512 58.6 105 57.32 103.592 57.192C101.928 57.192 101.16 58.6 100.904 59.88C97.832 70.504 95.528 80.104 93.608 93.288C92.712 100.2 91.944 104.424 91.56 111.336C91.56 112.232 91.048 112.744 90.28 113C89.128 113.256 87.72 112.232 87.848 111.08C85.032 95.464 84.264 86.376 80.04 71.144C76.2 57.192 69.544 38.888 58.536 38.888C49.96 38.888 45.352 54.632 45.352 66.408C45.352 77.16 47.016 84.456 52.136 93.032C55.592 98.92 60.328 103.272 66.984 103.272C70.952 103.272 74.28 100.584 74.536 96.872C75.048 96.488 75.176 95.976 75.816 95.976C77.48 95.976 77.864 98.92 77.864 100.968C77.864 105.96 74.536 109.928 68.392 109.928C57.256 109.928 51.88 100.968 47.4 91.112C43.944 83.432 42.92 75.24 42.92 68.968Z" fill="#111111"/>
<path d="M161.331 86.632C165.555 86.632 167.987 92.52 167.987 97.128C167.987 104.808 162.227 113 155.827 113C149.299 113 143.283 108.648 143.283 101.608C143.283 97.384 145.331 94.568 147.635 92.648C149.555 91.24 151.475 89.96 153.779 89.064C156.595 87.784 158.387 86.632 161.331 86.632ZM155.827 110.824C160.051 110.824 162.611 105.576 162.611 100.968C162.611 96.104 160.179 90.088 156.467 90.088C152.243 90.088 148.915 97 148.915 100.84C148.915 105.576 151.219 110.824 155.827 110.824Z" fill="#111111"/>
<path d="M181.91 87.016C184.342 87.016 186.774 88.552 186.774 90.856C186.646 92.264 185.75 94.184 184.598 94.184C183.19 94.184 182.422 92.776 182.422 91.624C182.422 90.472 181.014 89.832 179.734 89.832C178.838 89.832 178.07 90.472 177.302 91.112C176.278 91.88 175.766 92.776 175.766 94.184C175.766 98.28 179.99 99.816 182.806 102.248C185.75 104.68 187.67 106.856 187.67 110.696C187.67 114.664 185.238 117.992 181.782 120.68C178.07 123.624 173.206 124.392 170.262 124.392C170.262 124.008 169.878 123.752 169.878 123.496C169.878 122.856 170.006 122.6 170.39 122.088C175.51 122.088 181.91 119.4 181.91 113.768C181.91 111.08 179.99 108.136 177.302 105.96C174.23 103.272 171.67 101.224 171.67 97.128C171.67 93.672 173.334 91.496 176.022 89.32C178.07 87.912 180.118 87.016 181.91 87.016Z" fill="#111111"/>
<path d="M201.41 87.016C203.842 87.016 206.274 88.552 206.274 90.856C206.146 92.264 205.25 94.184 204.098 94.184C202.69 94.184 201.922 92.776 201.922 91.624C201.922 90.472 200.514 89.832 199.234 89.832C198.338 89.832 197.57 90.472 196.802 91.112C195.778 91.88 195.266 92.776 195.266 94.184C195.266 98.28 199.49 99.816 202.306 102.248C205.25 104.68 207.17 106.856 207.17 110.696C207.17 114.664 204.738 117.992 201.282 120.68C197.57 123.624 192.706 124.392 189.762 124.392C189.762 124.008 189.378 123.752 189.378 123.496C189.378 122.856 189.506 122.6 189.89 122.088C195.01 122.088 201.41 119.4 201.41 113.768C201.41 111.08 199.49 108.136 196.802 105.96C193.73 103.272 191.17 101.224 191.17 97.128C191.17 93.672 192.834 91.496 195.522 89.32C197.57 87.912 199.618 87.016 201.41 87.016Z" fill="#111111"/>
<path d="M228.206 86.632C232.43 86.632 234.862 92.52 234.862 97.128C234.862 104.808 229.102 113 222.702 113C216.174 113 210.158 108.648 210.158 101.608C210.158 97.384 212.206 94.568 214.51 92.648C216.43 91.24 218.35 89.96 220.654 89.064C223.47 87.784 225.262 86.632 228.206 86.632ZM222.702 110.824C226.926 110.824 229.486 105.576 229.486 100.968C229.486 96.104 227.054 90.088 223.342 90.088C219.118 90.088 215.79 97 215.79 100.84C215.79 105.576 218.094 110.824 222.702 110.824Z" fill="#111111"/>
<path d="M285.393 29.16C303.825 29.16 319.441 36.84 319.441 53.864C319.441 67.816 304.337 75.24 290.257 75.24C277.841 75.24 263.377 68.84 263.377 58.088C263.377 51.816 267.601 46.184 274.385 46.184C275.793 46.184 278.097 45.928 278.097 47.336C278.097 48.616 275.793 48.616 274.769 49.64C272.465 51.688 271.697 54.248 271.697 57.32C271.697 67.432 282.577 73.192 292.689 73.192C302.801 73.192 312.657 66.664 312.657 56.68C312.657 41.704 295.505 34.28 279.889 34.28C261.329 34.28 244.177 46.696 244.177 68.456C244.177 90.088 262.225 104.168 287.057 104.168C297.425 104.168 304.977 103.016 312.913 97.768C316.881 95.464 320.593 92.264 320.593 88.296C320.593 88.04 321.233 87.656 321.745 87.656C322.001 87.656 322.385 88.04 322.641 88.424C323.793 89.832 323.409 91.368 323.409 93.16C323.409 108.136 302.673 113 286.161 113C261.841 113 237.777 99.048 237.777 73.96C237.777 49.896 260.305 29.16 285.393 29.16Z" fill="#111111"/>
<path d="M328.515 104.68C328.515 100.328 332.099 97 334.275 94.568C337.091 91.624 341.315 87.656 346.947 87.656C350.147 87.656 354.883 88.68 354.883 90.216C354.883 91.88 352.835 92.648 352.835 94.312V103.4C352.835 104.68 352.835 106.216 353.987 106.984C354.627 107.368 355.523 106.728 356.419 106.984C356.675 106.984 357.059 107.368 357.059 107.624C357.059 108.904 353.731 110.696 351.555 112.36C350.787 113 350.275 114.536 348.995 114.536C348.227 114.536 347.587 113.512 347.587 112.36V105.32C346.179 106.728 345.283 107.88 343.875 108.904C341.059 111.08 339.011 113 335.683 113C331.459 113 328.515 108.776 328.515 104.68ZM347.843 97.768C347.843 96.36 347.843 94.44 346.819 93.16C345.923 92.008 344.003 91.496 343.363 91.496C338.371 91.496 333.891 96.36 333.891 100.456C333.891 103.912 336.195 107.368 339.523 107.368C344.387 107.368 347.843 103.144 347.843 97.768Z" fill="#111111"/>
<path d="M369.743 100.2V104.168C369.743 105.96 369.359 107.496 370.767 108.52C372.047 109.416 374.095 109.416 376.271 109.416C376.655 109.672 377.423 109.672 377.423 110.184C377.423 110.952 376.783 111.592 376.143 111.592C374.095 111.592 371.919 111.592 369.231 112.104C367.567 112.36 366.415 113 364.495 113C363.855 113 362.831 112.488 362.831 111.72C362.831 111.08 363.343 110.824 363.599 110.056C364.111 108.904 364.367 108.008 364.367 106.472V99.816C364.367 97.768 364.111 96.36 363.343 94.568C362.831 93.672 361.935 93.416 361.935 92.52C361.935 91.88 362.063 91.24 362.447 91.24L367.567 88.04C367.823 88.04 368.335 87.912 368.719 87.912C369.743 87.912 369.999 89.192 369.999 90.088C369.999 90.728 369.743 91.368 369.743 92.008V97.128C372.815 92.776 376.783 87.784 379.855 87.784C382.287 87.784 384.463 90.6 384.463 93.416C384.463 96.488 383.183 98.92 381.007 100.968C379.727 102.248 378.831 102.76 377.295 103.4C376.911 103.4 376.399 103.272 376.399 102.76C376.143 102.376 376.271 101.864 376.655 101.224C377.935 100.328 380.111 99.304 380.111 97C380.111 95.592 378.959 93.928 377.423 93.928C374.863 93.928 372.175 97 369.743 100.2Z" fill="#111111"/>
<path d="M385.015 100.456C385.015 92.904 392.823 88.552 400.375 88.552L390.391 76.52C387.831 73.32 386.935 70.888 386.935 66.792C386.935 62.696 387.959 60.136 390.391 57.064C391.287 55.912 391.799 55.272 392.695 54.504C393.207 54.504 393.463 54.248 393.719 54.376C394.231 54.504 394.615 55.144 394.231 55.784C392.055 57.704 391.415 59.368 391.415 62.184C391.415 65.256 392.695 67.816 393.975 69.736L408.311 89.32C410.615 92.136 411.639 94.568 411.639 98.28C411.639 102.12 410.359 104.68 408.055 107.496C405.367 110.952 401.783 113.256 398.455 113.256C392.183 113.256 385.015 107.624 385.015 100.456ZM390.775 98.152C390.775 103.912 396.663 107.88 402.295 107.88C406.519 107.88 408.183 105.192 408.183 101.608C408.183 95.976 403.063 90.6 398.839 90.6C394.615 90.6 390.775 93.416 390.775 98.152Z" fill="#111111"/>
<path d="M414.14 104.68C414.14 100.328 417.724 97 419.9 94.568C422.716 91.624 426.94 87.656 432.572 87.656C435.772 87.656 440.508 88.68 440.508 90.216C440.508 91.88 438.46 92.648 438.46 94.312V103.4C438.46 104.68 438.46 106.216 439.612 106.984C440.252 107.368 441.148 106.728 442.044 106.984C442.3 106.984 442.684 107.368 442.684 107.624C442.684 108.904 439.356 110.696 437.18 112.36C436.412 113 435.9 114.536 434.62 114.536C433.852 114.536 433.212 113.512 433.212 112.36V105.32C431.804 106.728 430.908 107.88 429.5 108.904C426.684 111.08 424.636 113 421.308 113C417.084 113 414.14 108.776 414.14 104.68ZM433.468 97.768C433.468 96.36 433.468 94.44 432.444 93.16C431.548 92.008 429.628 91.496 428.988 91.496C423.996 91.496 419.516 96.36 419.516 100.456C419.516 103.912 421.82 107.368 425.148 107.368C430.012 107.368 433.468 103.144 433.468 97.768ZM423.996 81.128L423.484 79.08C428.22 77.16 430.908 74.216 430.908 68.584C430.908 65.128 435.388 70.376 435.388 72.68C435.388 74.6 430.14 79.72 423.996 81.128Z" fill="#111111"/>
<path d="M455.517 112.104L455.773 115.688C455.773 121.192 455.773 124.136 455.773 129.64C455.773 134.12 455.773 136.936 455.773 141.672C455.261 142.056 455.005 142.44 454.621 142.824C453.469 143.464 452.445 143.464 451.293 143.464C449.885 143.464 449.501 143.08 448.989 142.312C449.245 136.936 449.629 133.992 449.885 128.616C450.141 122.6 450.397 119.016 450.397 112.744V111.08C447.709 110.44 445.661 109.672 445.661 108.52C445.661 107.88 448.477 106.728 450.397 106.088V98.28C450.397 96.744 450.269 95.464 448.989 94.44C448.221 93.544 446.685 93.672 446.685 92.776L446.941 92.136L453.469 88.04C453.725 88.04 453.981 87.656 454.621 87.656C455.261 87.656 455.773 88.296 455.773 89.064V94.312C456.669 93.16 457.821 92.008 458.973 91.112C461.149 89.32 463.453 87.656 465.245 87.656C468.829 87.656 472.669 91.88 472.669 95.976C472.669 99.048 471.517 101.864 469.469 104.808C466.909 108.776 462.813 112.232 459.741 112.232C458.589 112.232 457.181 112.104 455.517 112.104ZM455.773 96.488V106.088C456.797 106.472 458.077 106.728 460.125 106.728C462.941 106.728 465.629 106.728 467.677 104.424C468.445 103.144 469.085 102.248 469.085 100.712C469.085 96.36 466.525 92.904 461.533 92.904C459.357 92.904 457.437 94.568 455.773 96.488Z" fill="#111111"/>
<path d="M476.066 92.264C476.066 91.88 476.45 91.112 476.962 90.728L482.85 87.784C483.234 87.656 483.746 87.656 484.002 87.912C484.386 88.04 484.258 88.808 484.258 89.32C484.258 94.184 484.002 97.896 484.002 101.864C484.002 103.4 483.874 105.448 484.258 105.96C484.642 106.472 485.41 106.984 485.41 107.496C485.41 108.648 483.746 109.8 482.466 110.824C481.058 111.72 479.138 113 478.37 113C477.73 113 477.602 112.232 477.474 111.464C477.346 110.824 477.73 110.312 477.986 109.672C478.498 105.832 478.498 104.04 478.37 100.456C478.37 98.28 478.754 96.872 477.73 94.952C477.474 93.928 476.066 93.16 476.066 92.264ZM478.242 76.776C478.242 75.112 479.906 73.32 481.698 73.32C483.618 73.32 485.282 75.112 485.282 76.776C485.282 78.696 483.618 80.232 481.698 80.232C479.906 80.232 478.242 78.696 478.242 76.776Z" fill="#111111"/>
<path d="M507.081 86.632C511.305 86.632 513.737 92.52 513.737 97.128C513.737 104.808 507.977 113 501.577 113C495.049 113 489.033 108.648 489.033 101.608C489.033 97.384 491.081 94.568 493.385 92.648C495.305 91.24 497.225 89.96 499.529 89.064C502.345 87.784 504.137 86.632 507.081 86.632ZM501.577 110.824C505.801 110.824 508.361 105.576 508.361 100.968C508.361 96.104 505.929 90.088 502.217 90.088C497.993 90.088 494.665 97 494.665 100.84C494.665 105.576 496.969 110.824 501.577 110.824Z" fill="#111111"/>
</svg>
