<svg width="281" height="114" viewBox="0 0 281 114" fill="none" xmlns="http://www.w3.org/2000/svg">
<path d="M85.1371 4.97478L92.9942 11.7857L7.85714 110L0 103.189L85.1371 4.97478Z" fill="#08A45B"/>
<path d="M103.211 0L111.068 6.81097L25.9307 105.025L18.0736 98.2143L103.211 0Z" fill="#E43437"/>
<path d="M88.768 28.16C107.2 28.16 122.816 35.84 122.816 52.864C122.816 66.816 107.712 74.24 93.632 74.24C81.216 74.24 66.752 67.84 66.752 57.088C66.752 50.816 70.976 45.184 77.76 45.184C79.168 45.184 81.472 44.928 81.472 46.336C81.472 47.616 79.168 47.616 78.144 48.64C75.84 50.688 75.072 53.248 75.072 56.32C75.072 66.432 85.952 72.192 96.064 72.192C106.176 72.192 116.032 65.664 116.032 55.68C116.032 40.704 98.88 33.28 83.264 33.28C64.704 33.28 47.552 45.696 47.552 67.456C47.552 89.088 65.6 103.168 90.432 103.168C100.8 103.168 108.352 102.016 116.288 96.768C120.256 94.464 123.968 91.264 123.968 87.296C123.968 87.04 124.608 86.656 125.12 86.656C125.376 86.656 125.76 87.04 126.016 87.424C127.168 88.832 126.784 90.368 126.784 92.16C126.784 107.136 106.048 112 89.536 112C65.216 112 41.152 98.048 41.152 72.96C41.152 48.896 63.68 28.16 88.768 28.16Z" fill="#F7F7F7"/>
<path d="M148.956 85.632C153.18 85.632 155.612 91.52 155.612 96.128C155.612 103.808 149.852 112 143.452 112C136.924 112 130.908 107.648 130.908 100.608C130.908 96.384 132.956 93.568 135.26 91.648C137.18 90.24 139.1 88.96 141.404 88.064C144.22 86.784 146.012 85.632 148.956 85.632ZM143.452 109.824C147.676 109.824 150.236 104.576 150.236 99.968C150.236 95.104 147.804 89.088 144.092 89.088C139.868 89.088 136.54 96 136.54 99.84C136.54 104.576 138.844 109.824 143.452 109.824Z" fill="#F7F7F7"/>
<path d="M166.207 98.56V103.04C166.207 104.96 166.719 106.24 166.719 107.776C166.719 108.672 161.983 111.232 160.703 111.232C160.063 111.232 159.679 110.08 159.679 109.184C159.679 107.136 160.703 105.728 160.703 103.552V94.976C160.703 92.416 158.527 91.648 158.527 90.368C158.527 89.216 160.447 88.32 161.855 87.424C163.135 86.656 164.415 85.888 165.695 85.888C166.335 85.888 166.591 86.912 166.591 87.552C166.591 89.6 166.207 91.904 166.207 94.592V96.896C168.511 94.72 170.431 93.312 173.503 90.88C176.703 88.704 180.287 85.888 182.335 85.888C183.103 85.888 183.999 86.272 183.999 86.912C183.999 90.368 183.359 91.776 183.359 94.72V99.968C183.359 101.376 183.359 102.4 183.615 103.68C183.999 104.576 184.895 104.96 184.895 105.984C184.895 107.52 178.495 111.232 177.855 111.232C177.215 111.232 176.959 110.336 176.959 109.824C176.959 108.672 177.343 107.904 177.343 106.88C177.343 105.728 177.727 104.96 177.727 103.68V96.512C177.727 94.72 178.111 92.416 176.447 92.416C174.271 92.416 169.791 95.744 166.207 98.56Z" fill="#F7F7F7"/>
<path d="M196.118 90.368V97.28C196.118 101.504 195.99 105.728 198.294 105.728C198.934 105.728 199.19 106.24 199.19 106.88C199.19 107.264 199.19 107.904 198.806 107.904L194.198 111.36C193.686 111.872 193.302 112.256 192.662 112.256C188.31 112.256 190.614 99.2 190.614 90.496L186.518 90.368C186.518 89.856 186.006 89.728 186.006 89.472C186.006 88.704 186.262 88.32 186.646 88.064H191.126C192.278 85.248 193.43 83.2 195.094 80.512C196.63 77.824 197.782 76.416 199.446 74.112C199.83 73.728 200.47 73.728 200.854 74.112C201.11 74.24 201.238 74.496 201.238 75.136C199.83 77.568 199.062 79.232 198.038 81.92C197.398 83.968 196.63 86.4 196.246 88.064H202.39C202.39 88.32 203.03 88.704 203.03 89.216C203.03 89.6 202.774 90.112 202.39 90.368H196.118Z" fill="#F7F7F7"/>
<path d="M204.39 103.68C204.39 99.328 207.974 96 210.15 93.568C212.966 90.624 217.19 86.656 222.822 86.656C226.022 86.656 230.758 87.68 230.758 89.216C230.758 90.88 228.71 91.648 228.71 93.312V102.4C228.71 103.68 228.71 105.216 229.862 105.984C230.502 106.368 231.398 105.728 232.294 105.984C232.55 105.984 232.934 106.368 232.934 106.624C232.934 107.904 229.606 109.696 227.43 111.36C226.662 112 226.15 113.536 224.87 113.536C224.102 113.536 223.462 112.512 223.462 111.36V104.32C222.054 105.728 221.158 106.88 219.75 107.904C216.934 110.08 214.886 112 211.558 112C207.334 112 204.39 107.776 204.39 103.68ZM223.718 96.768C223.718 95.36 223.718 93.44 222.694 92.16C221.798 91.008 219.878 90.496 219.238 90.496C214.246 90.496 209.766 95.36 209.766 99.456C209.766 102.912 212.07 106.368 215.398 106.368C220.262 106.368 223.718 102.144 223.718 96.768Z" fill="#F7F7F7"/>
<path d="M246.618 90.368V97.28C246.618 101.504 246.49 105.728 248.794 105.728C249.434 105.728 249.69 106.24 249.69 106.88C249.69 107.264 249.69 107.904 249.306 107.904L244.698 111.36C244.186 111.872 243.802 112.256 243.162 112.256C238.81 112.256 241.114 99.2 241.114 90.496L237.018 90.368C237.018 89.856 236.506 89.728 236.506 89.472C236.506 88.704 236.762 88.32 237.146 88.064H241.626C242.778 85.248 243.93 83.2 245.594 80.512C247.13 77.824 248.282 76.416 249.946 74.112C250.33 73.728 250.97 73.728 251.354 74.112C251.61 74.24 251.738 74.496 251.738 75.136C250.33 77.568 249.562 79.232 248.538 81.92C247.898 83.968 247.13 86.4 246.746 88.064H252.89C252.89 88.32 253.53 88.704 253.53 89.216C253.53 89.6 253.274 90.112 252.89 90.368H246.618Z" fill="#F7F7F7"/>
<path d="M273.706 85.632C277.93 85.632 280.362 91.52 280.362 96.128C280.362 103.808 274.602 112 268.202 112C261.674 112 255.658 107.648 255.658 100.608C255.658 96.384 257.706 93.568 260.01 91.648C261.93 90.24 263.85 88.96 266.154 88.064C268.97 86.784 270.762 85.632 273.706 85.632ZM268.202 109.824C272.426 109.824 274.986 104.576 274.986 99.968C274.986 95.104 272.554 89.088 268.842 89.088C264.618 89.088 261.29 96 261.29 99.84C261.29 104.576 263.594 109.824 268.202 109.824Z" fill="#F7F7F7"/>
</svg>
