<svg width="32" height="32" viewBox="0 0 32 32" fill="none" xmlns="http://www.w3.org/2000/svg">
<g clip-path="url(#clip0_58_64)">
<circle cx="16" cy="16" r="16" fill="white"/>
<path d="M22.3968 5.0571L24.0946 6.50436L5.6978 27.374L4 25.9267L22.3968 5.0571Z" fill="#08A45B"/>
<path d="M26.3022 4L28 5.44727L9.60322 26.3169L7.90542 24.8696L26.3022 4Z" fill="#E43437"/>
<path d="M13.4078 20.4824C13.4078 21.8606 13.3568 23.0133 13.3568 23.74C13.3568 25.0681 13.5352 26.8974 14.3507 26.8974C14.6055 26.8974 14.7839 26.7721 15.0387 26.7721L15.268 26.7972V27.0227C15.0897 27.3234 14.7839 27.4738 14.5036 27.6492C14.0194 27.8998 13.5352 28 13.102 28C12.6943 28 12.3121 27.7745 12.0827 27.4236C11.726 26.8974 11.8024 25.3187 11.8024 24.0157C11.8024 22.7377 11.9553 21.61 11.9553 20.4824C10.7067 20.6327 9.63641 21.0337 8.94838 21.9608C8.89741 21.9608 8.82097 21.9608 8.74452 21.9608C8.64259 21.9608 8.61711 21.8857 8.61711 21.7854C9.48351 20.3571 10.6302 19.6304 12.0063 19.3798C12.1337 16.7737 12.1592 14.368 12.0827 11.361C12.0827 11.1856 12.0318 10.8598 11.8279 10.8598C11.7005 10.8598 11.5731 10.8348 11.4711 10.9099C10.7067 11.7118 9.81478 12.6641 8.66807 12.6641C7.77619 12.6641 7.16461 11.8872 7.16461 11.0854C7.16461 10.1081 7.59781 9.3563 8.36228 8.77995L8.51518 8.75489L8.56614 8.9303C8.36228 9.40642 8.18391 9.68207 8.18391 10.2083C8.18391 10.9099 8.66807 11.4863 9.33062 11.4863C10.0186 11.4863 10.4518 11.1856 11.0125 10.7847L12.7962 9.33124C12.9491 9.20595 13.0511 9.13078 13.204 9.13078C13.5607 9.13078 13.6372 9.85748 13.6372 12.1128C13.6372 13.5411 13.5097 16.5231 13.4333 19.1543C13.6117 19.1543 13.7391 19.1543 13.9429 19.1543C15.6248 19.1543 17.9947 20.0564 19.0649 20.0564C19.9313 20.0564 20.6448 19.5803 21.1545 18.8786C22.1228 17.5004 22.8873 15.6962 22.8873 13.5161C22.8873 11.2357 21.6896 7.40172 18.8356 7.40172C16.746 7.40172 15.5483 10.4338 15.5483 12.5388C15.5483 14.343 16.109 16.047 16.7715 17.0744C16.7715 17.1245 16.8989 17.2498 16.8989 17.3751C16.8989 17.6758 16.4657 18.3273 16.2109 18.3273L16.0325 18.1519C15.268 16.6735 15.0132 15.3704 15.0132 13.5161C15.0132 12.3634 15.0387 10.3587 16.0325 8.85513C17.0008 7.37666 18.1221 6.07361 19.6001 6.07361C22.8363 6.07361 24.1869 9.45654 24.1869 11.4362C24.1869 13.2404 24.1359 14.3931 23.3969 16.0971C22.8109 17.3751 22.0973 18.4025 21.129 19.4299C20.0842 20.5325 19.1669 21.3093 17.6379 21.3093C15.9051 21.3093 15.268 20.5576 13.4078 20.4824Z" fill="black"/>
</g>
<defs>
<clipPath id="clip0_58_64">
<rect width="32" height="32" fill="white"/>
</clipPath>
</defs>
</svg>
