<svg width="60" height="32" viewBox="0 0 60 32" fill="none" xmlns="http://www.w3.org/2000/svg">
<g clip-path="url(#clip0_18_118)">
<path d="M0 18.3708H4.56633L7.10378 5.63308H2.53685L0 18.3708ZM2.78845 4.11384H7.3739L8.12749 0.302762H3.54382L2.78845 4.11384ZM6.34243 21.9551H10.9094L13.6996 8.1933H17.1245L17.6295 5.63308H14.2703L14.3976 5.05711C14.5876 3.9715 14.9683 2.75261 16.6805 2.75261C17.6964 2.75261 18.6472 2.81654 19.598 3.26465L20.106 0.576576C19.0463 0.199253 17.9314 0.00434595 16.8078 0C13.1289 0 10.5926 2.17664 9.64064 5.63308H8.05518L7.54781 8.1933H9.13327L6.34243 21.9551Z" fill="#636363"/>
<path d="M20.8034 18.6272C26.1944 18.6272 29.9367 13.698 29.9367 9.66555C29.9367 6.65722 27.2092 5.37681 24.5456 5.37681C18.6454 5.37681 15.4124 10.6927 15.4124 14.3385C15.4124 17.3468 18.2032 18.6272 20.8034 18.6272ZM35.2656 18.6272C40.6566 18.6272 44.3988 13.698 44.3988 9.66555C44.3988 6.65722 41.608 5.37681 38.9439 5.37681C33.0454 5.37681 29.8112 10.6896 29.8112 14.3385C29.8112 17.3468 32.6654 18.6272 35.2656 18.6272ZM51.8194 18.3709H56.3223L60 0.258789H55.4337L54.355 5.63555L52.4522 5.44376C48.0126 5.44376 43.9536 11.2041 43.9536 15.301C43.9536 16.965 45.0293 18.6296 46.8711 18.6296C49.4713 18.6296 51.3108 17.3492 52.0703 16.0688H52.3237L51.8194 18.3709ZM37.7379 27.9085C34.1934 30.8724 29.6408 32.3196 25.053 31.9409C19.0273 31.5568 14.7144 26.8838 13.9536 21.9552H14.207C15.6024 25.0311 18.964 27.9085 23.0869 28.356C27.2701 28.8681 32.2835 26.9484 35.0104 24.3236L31.9662 21.9552H41.1628L39.1309 31.8131L37.7988 27.9725L37.7379 27.9085Z" fill="#636363"/>
</g>
<defs>
<clipPath id="clip0_18_118">
<rect width="60" height="32" fill="white"/>
</clipPath>
</defs>
</svg>
