<svg width="188" height="100" viewBox="0 0 188 100" fill="none" xmlns="http://www.w3.org/2000/svg">
<g clip-path="url(#clip0_52_14)">
<path d="M0 57.4089H14.2698L22.1993 17.6034H7.92766L0 57.4089ZM8.71389 12.8557H23.0435L25.3984 0.946132H11.0745L8.71389 12.8557ZM19.8201 68.6098H34.0918L42.8113 25.6041H53.5141L55.0921 17.6034H44.5947L44.9925 15.8035C45.5864 12.4109 46.776 8.60191 52.1265 8.60191C55.3013 8.60191 58.2725 8.80169 61.2438 10.202L62.8312 1.8018C59.5198 0.622665 56.0357 0.0135811 52.5243 0C41.0278 0 33.102 6.80199 30.127 17.6034H25.1724L23.5869 25.6041H28.5415L19.8201 68.6098Z" fill="#111111"/>
<path d="M65.0106 58.2099C81.8576 58.2099 93.552 42.806 93.552 30.2047C93.552 20.8036 85.0286 16.8023 76.7051 16.8023C58.2669 16.8023 48.1636 33.4144 48.1636 44.8076C48.1636 54.2086 56.885 58.2099 65.0106 58.2099ZM110.205 58.2099C127.052 58.2099 138.746 42.806 138.746 30.2047C138.746 20.8036 130.025 16.8023 121.699 16.8023C103.267 16.8023 93.1599 33.4049 93.1599 44.8076C93.1599 54.2086 102.079 58.2099 110.205 58.2099ZM161.935 57.4089H176.007L187.5 0.808533H173.23L169.859 17.6109L163.913 17.0116C150.039 17.0116 137.355 35.0126 137.355 47.8156C137.355 53.0156 140.717 58.2174 146.472 58.2174C154.598 58.2174 160.346 54.2161 162.72 50.2148H163.512L161.935 57.4089ZM117.931 87.214C106.854 96.4761 92.6274 100.999 78.2906 99.8153C59.4603 98.6147 45.9823 84.0118 43.6049 68.6098H44.3968C48.7575 78.2219 59.2623 87.214 72.1464 88.6124C85.2191 90.2126 100.886 84.2135 109.407 76.0111L99.8942 68.6098H128.634L122.284 99.4157L118.121 87.4138L117.931 87.214Z" fill="#111111"/>
</g>
<defs>
<clipPath id="clip0_52_14">
<rect width="187.5" height="100" fill="white"/>
</clipPath>
</defs>
</svg>
