<svg width="32" height="32" viewBox="0 0 32 32" fill="none" xmlns="http://www.w3.org/2000/svg">
<path d="M23.6187 8.3292C23.3031 8.3292 23.0473 8.07336 23.0473 7.75777C23.0473 7.44218 23.3031 7.18634 23.6187 7.18634" stroke="#F7F7F7" stroke-linecap="round" stroke-linejoin="round"/>
<path d="M23.6187 8.3292C23.9344 8.3292 24.1902 8.07336 24.1902 7.75777C24.1902 7.44218 23.9344 7.18634 23.6187 7.18634" stroke="#F7F7F7" stroke-linecap="round" stroke-linejoin="round"/>
<path d="M1.96178 7.84321C1.96178 4.59514 4.59486 1.96204 7.84295 1.96204H23.5262C26.7742 1.96204 29.4073 4.59514 29.4073 7.84321V23.5264C29.4073 26.7744 26.7742 29.4075 23.5262 29.4075H7.84295C4.59486 29.4075 1.96178 26.7744 1.96178 23.5264V7.84321Z" stroke="#F7F7F7" stroke-linecap="round" stroke-linejoin="round"/>
<path d="M9.856 15.6845C9.856 16.4499 10.0068 17.2079 10.2997 17.915C10.5926 18.6222 11.0219 19.2647 11.5632 19.806C12.1044 20.3472 12.7469 20.7765 13.4541 21.0694C14.1612 21.3623 14.9192 21.5131 15.6846 21.5131C16.45 21.5131 17.2079 21.3623 17.9151 21.0694C18.6222 20.7765 19.2648 20.3472 19.806 19.806C20.3472 19.2647 20.7766 18.6222 21.0695 17.915C21.3624 17.2079 21.5131 16.4499 21.5131 15.6845C21.5131 14.1387 20.8991 12.6562 19.806 11.5631C18.7129 10.47 17.2304 9.85596 15.6846 9.85596C14.1387 9.85596 12.6562 10.47 11.5632 11.5631C10.4701 12.6562 9.856 14.1387 9.856 15.6845Z" stroke="#F7F7F7" stroke-linecap="round" stroke-linejoin="round"/>
</svg>
