<svg width="32" height="32" viewBox="0 0 32 32" fill="none" xmlns="http://www.w3.org/2000/svg">
<path d="M23.6188 8.32938C23.3031 8.32938 23.0474 8.07354 23.0474 7.75795C23.0474 7.44236 23.3031 7.18652 23.6188 7.18652" stroke="#636363" stroke-linecap="round" stroke-linejoin="round"/>
<path d="M23.6188 8.32938C23.9344 8.32938 24.1902 8.07354 24.1902 7.75795C24.1902 7.44236 23.9344 7.18652 23.6188 7.18652" stroke="#636363" stroke-linecap="round" stroke-linejoin="round"/>
<path d="M1.96179 7.84333C1.96179 4.59526 4.59487 1.96216 7.84297 1.96216H23.5262C26.7742 1.96216 29.4073 4.59526 29.4073 7.84333V23.5265C29.4073 26.7745 26.7742 29.4076 23.5262 29.4076H7.84297C4.59487 29.4076 1.96179 26.7745 1.96179 23.5265V7.84333Z" stroke="#636363" stroke-linecap="round" stroke-linejoin="round"/>
<path d="M9.85596 15.6848C9.85596 16.4502 10.0067 17.2081 10.2996 17.9153C10.5925 18.6224 11.0219 19.265 11.5631 19.8062C12.1043 20.3474 12.7469 20.7768 13.454 21.0697C14.1612 21.3626 14.9191 21.5133 15.6845 21.5133C16.4499 21.5133 17.2079 21.3626 17.915 21.0697C18.6222 20.7768 19.2647 20.3474 19.806 19.8062C20.3472 19.265 20.7765 18.6224 21.0694 17.9153C21.3623 17.2081 21.5131 16.4502 21.5131 15.6848C21.5131 14.1389 20.899 12.6564 19.806 11.5634C18.7129 10.4703 17.2304 9.8562 15.6845 9.8562C14.1387 9.8562 12.6562 10.4703 11.5631 11.5634C10.47 12.6564 9.85596 14.1389 9.85596 15.6848Z" stroke="#636363" stroke-linecap="round" stroke-linejoin="round"/>
</svg>
