<svg width="281" height="76" viewBox="0 0 281 76" fill="none" xmlns="http://www.w3.org/2000/svg">
<path d="M32.7505 1.9137L35.773 4.53374L3.02248 42.3147L0 39.6947L32.7505 1.9137Z" fill="#08A45B"/>
<path d="M39.703 0L42.7255 2.62004L9.97502 40.4011L6.95254 37.781L39.703 0Z" fill="#E43437"/>
<path d="M19.3253 50.6815C19.3253 54.7953 19.1757 58.236 19.1757 60.4051C19.1757 64.3694 19.6993 69.8296 22.0928 69.8296C22.8408 69.8296 23.3643 69.4556 24.1123 69.4556L24.7855 69.5304V70.2036C24.2619 71.1011 23.3643 71.5499 22.5416 72.0735C21.1204 72.8214 19.6993 73.1206 18.4277 73.1206C17.231 73.1206 16.109 72.4475 15.4358 71.4003C14.3887 69.8296 14.6131 65.1173 14.6131 61.2279C14.6131 57.4132 15.0619 54.0474 15.0619 50.6815C11.3968 51.1303 8.25532 52.327 6.2358 55.0945C6.0862 55.0945 5.86181 55.0945 5.63742 55.0945C5.33823 55.0945 5.26343 54.8701 5.26343 54.571C7.80654 50.3075 11.1724 48.1384 15.2114 47.3904C15.5854 39.6115 15.6602 32.431 15.4358 23.4554C15.4358 22.9318 15.2862 21.9594 14.6879 21.9594C14.3139 21.9594 13.9399 21.8846 13.6407 22.109C11.3968 24.5025 8.7789 27.3448 5.41303 27.3448C2.79513 27.3448 1 25.0261 1 22.6326C1 19.7155 2.27155 17.4716 4.51546 15.7513L4.96425 15.6765L5.11384 16.2C4.51546 17.6212 3.99188 18.444 3.99188 20.0147C3.99188 22.109 5.41303 23.8293 7.35775 23.8293C9.37728 23.8293 10.6488 22.9318 12.2944 21.735L17.5302 17.3968C17.9789 17.0228 18.2781 16.7984 18.7269 16.7984C19.7741 16.7984 19.9985 18.9675 19.9985 25.6993C19.9985 29.9627 19.6245 38.8636 19.4001 46.7173C19.9237 46.7173 20.2977 46.7173 20.896 46.7173C25.8326 46.7173 32.7888 49.41 35.9302 49.41C38.4733 49.41 40.5677 47.9888 42.0636 45.8945C44.9059 41.7807 47.1498 36.3953 47.1498 29.8879C47.1498 23.0814 43.6343 11.6374 35.2571 11.6374C29.1237 11.6374 25.6082 20.6879 25.6082 26.9708C25.6082 32.3562 27.2538 37.4424 29.1985 40.5091C29.1985 40.6587 29.5725 41.0327 29.5725 41.4067C29.5725 42.3042 28.3009 44.249 27.553 44.249L27.0294 43.7254C24.7855 39.3123 24.0375 35.4229 24.0375 29.8879C24.0375 26.4472 24.1123 20.4635 27.0294 15.9757C29.8717 11.5626 33.1628 7.67317 37.501 7.67317C47.0002 7.67317 50.9645 17.7708 50.9645 23.6798C50.9645 29.0651 50.8149 32.5058 48.6458 37.592C46.9254 41.4067 44.8311 44.4734 41.9888 47.54C38.9221 50.8311 36.2294 53.1498 31.7416 53.1498C26.6554 53.1498 24.7855 50.9059 19.3253 50.6815Z" fill="#F7F7F7"/>
<path d="M47.3795 50.3823C47.3795 47.8392 49.4738 45.8945 50.7453 44.4734C52.3909 42.753 54.8592 40.4343 58.1502 40.4343C60.0202 40.4343 62.7877 41.0327 62.7877 41.9302C62.7877 42.9026 61.5909 43.3514 61.5909 44.3238V49.6343C61.5909 50.3823 61.5909 51.2799 62.2641 51.7287C62.6381 51.9531 63.1616 51.5791 63.6852 51.7287C63.8348 51.7287 64.0592 51.9531 64.0592 52.1027C64.0592 52.8506 62.1145 53.8978 60.8429 54.8701C60.3942 55.2441 60.095 56.1417 59.347 56.1417C58.8982 56.1417 58.5242 55.5433 58.5242 54.8701V50.7563C57.7015 51.5791 57.1779 52.2522 56.3551 52.8506C54.7096 54.1222 53.5128 55.2441 51.5681 55.2441C49.0998 55.2441 47.3795 52.7758 47.3795 50.3823ZM58.6738 46.3433C58.6738 45.5205 58.6738 44.3986 58.0754 43.6506C57.5519 42.9774 56.4299 42.6782 56.0559 42.6782C53.1388 42.6782 50.5209 45.5205 50.5209 47.914C50.5209 49.9335 51.8673 51.9531 53.812 51.9531C56.6543 51.9531 58.6738 49.4848 58.6738 46.3433Z" fill="#F7F7F7"/>
<path d="M75.4477 19.5659C78.2151 19.5659 79.0379 21.8098 79.0379 23.605C79.0379 27.8684 75.9712 31.9822 72.381 36.0213C72.007 36.3953 71.7078 36.844 71.259 37.0684C71.259 41.7807 71.0346 45.1465 71.0346 50.1579C71.0346 50.9807 71.1094 51.6539 71.7078 52.327C72.007 52.5514 72.2314 52.701 72.6802 52.8506C73.5029 53.2246 74.0265 53.0002 74.9989 53.0002C75.1485 53.1498 75.2233 53.3742 75.2233 53.5238C75.2233 53.823 75.1485 54.1222 74.9989 54.197C73.4281 54.197 72.3062 54.4214 70.7354 54.6458C69.4639 54.8701 68.4915 55.2441 67.3696 55.2441C67.0704 55.2441 66.7712 54.9449 66.7712 54.8701C66.7712 54.1222 67.594 53.5238 67.594 52.6262C67.594 47.914 67.8931 44.3985 67.8931 40.1351C66.9208 41.0327 66.0232 41.7807 65.2753 42.3042C64.9761 42.3042 64.5273 42.3042 64.5273 42.1546C64.5273 41.8554 64.4525 41.5563 64.5273 41.4067C65.8736 40.2847 66.9208 39.3871 67.8931 38.4896C67.8931 37.6668 68.0427 36.6945 68.0427 35.7969C68.0427 32.5806 68.4167 27.9432 70.5858 23.4554C71.7078 21.361 73.3533 19.5659 75.4477 19.5659ZM72.9793 23.0814C72.0818 25.6993 71.259 29.9627 71.259 34.3757C71.259 34.7497 71.259 35.0489 71.259 35.4229C71.4834 35.2733 71.7078 35.0489 71.9322 34.8245C74.9989 31.6082 76.4948 27.9432 76.4948 24.5773C76.4948 23.0814 76.046 21.1367 74.7745 21.1367C74.1761 21.1367 73.3533 22.2586 72.9793 23.0814Z" fill="#F7F7F7"/>
<path d="M88.4062 46.7173C87.7331 47.7644 87.0599 48.662 86.0127 49.7839C84.442 51.7287 81.5997 54.4962 81.5997 54.4962C81.1509 54.9449 80.6274 55.2441 79.8794 55.2441C78.4582 55.2441 77.9347 53.449 77.9347 52.1027C77.9347 50.2327 78.2338 49.036 78.2338 47.0164C78.2338 46.1937 78.0843 45.7449 78.0843 44.9221C78.0843 44.0994 77.1119 43.3514 77.1119 42.753C77.1119 41.8554 78.2338 41.7807 78.9818 41.3319C79.5054 40.9579 79.8046 40.4343 80.5526 40.4343C80.7769 40.4343 81.4501 40.5839 81.4501 40.5839C82.4225 42.1546 81.5249 45.2961 81.5249 48.288V50.2327C81.5249 50.6815 81.5249 51.5043 82.0485 51.5043C82.6469 51.5043 82.9461 51.2799 83.3948 50.9059C83.3948 50.9059 85.19 48.9612 86.2371 47.6148C87.2095 46.3433 87.9575 45.3709 88.7054 44.1742C88.7054 42.6782 88.855 41.8554 88.9298 41.1075C88.9298 41.1075 90.0518 40.8083 90.5754 40.8083C91.1737 40.8083 91.1737 40.6587 91.7721 41.3319C92.1461 41.6311 91.3981 46.1189 91.3981 49.1856C91.3981 50.0831 91.5477 51.2051 91.7721 51.5791C92.3705 52.2522 92.9689 52.2522 92.9689 52.701C92.9689 52.8506 92.8941 53.2246 92.6697 53.2246L89.6778 54.8701C89.5282 54.8701 89.229 55.0945 88.9298 55.0945C88.3315 55.0945 88.1071 54.571 88.1071 53.7482C88.1071 53.2246 88.2567 52.701 88.2567 52.1027C88.2567 50.8311 88.3315 50.0083 88.3315 48.7368C88.3315 48.1384 88.4062 47.3904 88.4062 46.7173Z" fill="#F7F7F7"/>
<path d="M94.2007 47.914C94.2007 43.501 98.7633 40.9579 103.176 40.9579L97.3422 33.927C95.8462 32.057 95.3226 30.6359 95.3226 28.2424C95.3226 25.8489 95.921 24.3529 97.3422 22.5578C97.8657 21.8846 98.1649 21.5106 98.6885 21.0619C98.9877 21.0619 99.1373 20.9123 99.2869 20.9871C99.5861 21.0619 99.8105 21.4358 99.5861 21.8098C98.3145 22.9318 97.9405 23.9041 97.9405 25.5497C97.9405 27.3448 98.6885 28.8408 99.4365 29.9627L107.814 41.4067C109.16 43.0522 109.758 44.4733 109.758 46.6425C109.758 48.8864 109.011 50.3823 107.664 52.0279C106.093 54.0474 103.999 55.3937 102.054 55.3937C98.3893 55.3937 94.2007 52.1027 94.2007 47.914ZM97.5666 46.5677C97.5666 49.9335 101.007 52.2522 104.298 52.2522C106.767 52.2522 107.739 50.6815 107.739 48.5872C107.739 45.2961 104.747 42.1546 102.279 42.1546C99.8105 42.1546 97.5666 43.8002 97.5666 46.5677Z" fill="#F7F7F7"/>
<path d="M112.492 43.127C112.492 42.9026 112.716 42.4538 113.015 42.2294L116.456 40.5091C116.68 40.4343 116.979 40.4343 117.129 40.5839C117.353 40.6587 117.279 41.1075 117.279 41.4067C117.279 44.249 117.129 46.4181 117.129 48.7368C117.129 49.6343 117.054 50.8311 117.279 51.1303C117.503 51.4295 117.952 51.7287 117.952 52.0279C117.952 52.701 116.979 53.3742 116.231 53.9726C115.409 54.4962 114.287 55.2441 113.838 55.2441C113.464 55.2441 113.389 54.7953 113.314 54.3466C113.239 53.9726 113.464 53.6734 113.613 53.2994C113.913 51.0555 113.913 50.0083 113.838 47.914C113.838 46.6425 114.062 45.8197 113.464 44.6977C113.314 44.0994 112.492 43.6506 112.492 43.127ZM113.763 34.0765C113.763 33.1042 114.735 32.057 115.783 32.057C116.905 32.057 117.877 33.1042 117.877 34.0765C117.877 35.1985 116.905 36.0961 115.783 36.0961C114.735 36.0961 113.763 35.1985 113.763 34.0765Z" fill="#F7F7F7"/>
<path d="M150.917 29.6635C151.44 26.9708 147.401 25.9237 144.783 25.9237C141.941 25.9237 139.398 26.7464 137.079 28.392C139.548 31.2343 143.138 32.8798 146.803 32.8798C148.448 32.8798 150.618 31.683 150.917 29.6635ZM147.85 34.8245C144.26 34.8245 139.248 32.7302 135.883 29.4391C133.489 31.6082 131.918 34.7497 131.918 38.1904C131.918 46.6425 140.445 50.6815 149.72 50.6815C157.948 50.6815 163.557 48.5872 169.766 43.5758L170.439 43.501C170.663 43.501 170.888 44.0994 170.588 44.3238C167.821 47.3904 164.904 50.0083 162.361 51.5043C157.2 54.4214 153.011 55.2441 147.177 55.2441C135.883 55.2441 127.43 49.8587 127.43 40.0603C127.43 34.8245 130.198 30.4115 134.312 27.644C132.891 25.6993 131.918 23.3806 131.918 20.9123C131.918 11.4878 141.418 7 150.393 7C155.554 7 163.183 8.27155 167.297 12.3854C168.195 13.3578 167.522 15.2277 166.923 16.7236C166.475 17.9952 165.278 19.7155 164.754 19.4911C163.931 19.0423 164.979 16.4244 164.006 15.7513C159.892 12.909 155.18 11.039 149.346 11.039C142.24 11.039 134.761 14.3301 134.761 21.9594C134.761 23.6798 135.135 25.3253 135.883 26.6716C138.426 25.3253 141.418 24.6521 144.484 24.6521C149.346 24.6521 155.928 25.9985 155.928 30.8603C155.928 34.1513 151.066 34.8245 147.85 34.8245Z" fill="#F7F7F7"/>
<path d="M178.432 40.0603C179.853 40.0603 181.274 40.9579 181.274 42.3042C181.2 43.127 180.676 44.249 180.003 44.249C179.18 44.249 178.731 43.4262 178.731 42.753C178.731 42.0798 177.909 41.7059 177.161 41.7059C176.637 41.7059 176.188 42.0798 175.739 42.4538C175.141 42.9026 174.842 43.4262 174.842 44.249C174.842 46.6425 177.31 47.54 178.956 48.9612C180.676 50.3823 181.798 51.6539 181.798 53.8978C181.798 56.2165 180.377 58.1612 178.357 59.732C176.188 61.4523 173.346 61.9011 171.626 61.9011C171.626 61.6767 171.401 61.5271 171.401 61.3775C171.401 61.0035 171.476 60.8539 171.7 60.5547C174.692 60.5547 178.432 58.984 178.432 55.6929C178.432 54.1222 177.31 52.4018 175.739 51.1303C173.944 49.5596 172.448 48.3628 172.448 45.9693C172.448 43.9498 173.421 42.6782 174.991 41.4067C176.188 40.5839 177.385 40.0603 178.432 40.0603Z" fill="#F7F7F7"/>
<path d="M195.063 23.0066C197.531 23.0066 198.578 25.0261 198.578 26.7464C198.578 28.9903 197.307 31.4587 195.661 33.7774C194.09 36.0213 192.595 37.3676 190.5 38.4148C190.5 39.3123 190.575 40.1351 190.575 41.1075H195.287C195.661 41.1075 195.811 41.4067 195.811 41.7807C195.811 42.1546 195.661 42.5286 195.287 42.5286H190.575C190.575 45.4457 190.874 47.3904 190.575 50.4571C190.575 55.3937 189.902 58.0864 189.528 63.023C189.004 67.8848 188.705 70.7271 188.107 75.6637C187.658 75.8133 187.359 75.6637 186.91 75.6637C186.76 75.6637 186.386 75.0654 186.386 75.0654C186.686 72.8214 186.76 70.5027 186.76 67.7352C186.835 57.9368 186.386 51.9531 186.386 42.5286H183.394C183.095 42.5286 182.871 42.1546 182.871 41.7059C182.871 41.4067 183.095 41.1075 183.394 41.1075H186.386C186.386 38.2652 186.91 32.8798 188.855 27.9432C189.827 25.4749 192.071 23.0066 195.063 23.0066ZM191.323 26.8212C190.126 30.4863 190.5 33.7026 190.5 37.3676C191.996 36.3953 192.969 35.1237 194.016 33.2538C194.913 31.5335 195.287 29.8131 195.287 27.7936C195.287 26.522 194.838 24.5773 194.09 24.5773C192.819 24.5773 191.697 25.6245 191.323 26.8212Z" fill="#F7F7F7"/>
<path d="M198.099 43.127C198.099 42.9026 198.324 42.4538 198.623 42.2294L202.063 40.5091C202.288 40.4343 202.587 40.4343 202.737 40.5839C202.961 40.6587 202.886 41.1075 202.886 41.4067C202.886 44.249 202.737 46.4181 202.737 48.7368C202.737 49.6343 202.662 50.8311 202.886 51.1303C203.111 51.4295 203.559 51.7287 203.559 52.0279C203.559 52.701 202.587 53.3742 201.839 53.9726C201.016 54.4962 199.894 55.2441 199.445 55.2441C199.071 55.2441 198.997 54.7953 198.922 54.3466C198.847 53.9726 199.071 53.6734 199.221 53.2994C199.52 51.0555 199.52 50.0083 199.445 47.914C199.445 46.6425 199.67 45.8197 199.071 44.6977C198.922 44.0994 198.099 43.6506 198.099 43.127ZM199.371 34.0765C199.371 33.1042 200.343 32.057 201.39 32.057C202.512 32.057 203.484 33.1042 203.484 34.0765C203.484 35.1985 202.512 36.0961 201.39 36.0961C200.343 36.0961 199.371 35.1985 199.371 34.0765Z" fill="#F7F7F7"/>
<path d="M222.057 27.9432C222.057 31.8326 218.841 36.4701 214.951 40.2847C213.455 41.7807 212.184 42.9026 210.837 43.875C210.837 46.1937 211.137 48.3628 211.137 51.1303C212.857 49.1856 216.746 45.7449 216.746 45.7449C217.195 45.2961 217.943 45.0717 218.242 45.0717C219.065 45.0717 221.01 47.4652 221.01 51.6539C221.01 56.3661 219.289 61.2279 214.951 64.6686C211.885 67.1369 207.995 68.3336 205.153 68.3336C204.405 68.3336 204.106 67.8848 204.106 67.0621C204.106 66.1645 205.003 66.0897 205.602 66.0897C206.499 66.0897 206.948 66.5385 207.846 66.5385C210.089 66.5385 211.66 65.4913 213.081 64.145C215.924 61.5271 217.494 57.2637 217.494 52.4018C217.494 51.0555 217.494 49.036 216.148 49.036C214.727 49.036 213.68 50.2327 212.483 51.2051C211.286 52.2522 210.239 53.2994 209.641 54.1222C209.641 54.2718 209.192 54.4962 209.192 54.7953C208.967 55.0945 208.519 55.2441 208.07 55.2441C207.322 55.2441 207.247 54.4962 207.247 53.5238C207.247 51.7287 207.621 50.4571 207.621 48.662C207.621 47.6148 207.546 47.0164 207.546 46.2685C206.948 46.6425 206.499 46.7921 205.976 47.2408C205.676 47.2408 205.377 47.9888 205.153 48.2132C204.779 48.3628 204.33 48.2132 204.33 47.8392C204.33 47.4652 204.18 47.0912 204.48 46.9417C205.527 46.2685 206.499 45.5953 207.472 45.0717C207.472 44.4734 207.472 43.875 207.472 43.127C207.472 37.4424 207.846 32.057 211.735 27.1204C212.707 25.6993 215.4 23.5302 217.494 23.5302C219.813 23.5302 222.057 25.9237 222.057 27.9432ZM212.184 29.2895C210.837 32.7302 210.688 35.6473 210.688 37.8164C210.688 39.6115 210.837 41.1075 210.837 42.5286C211.66 41.9302 212.333 41.3319 213.081 40.5839C216.672 36.9188 219.14 33.7026 219.14 29.0651C219.14 27.3448 217.794 25.5497 216.223 25.5497C214.577 25.5497 212.857 27.4196 212.184 29.2895Z" fill="#F7F7F7"/>
<path d="M222.904 50.3823C222.904 47.8392 224.999 45.8945 226.27 44.4734C227.916 42.753 230.384 40.4343 233.675 40.4343C235.545 40.4343 238.312 41.0327 238.312 41.9302C238.312 42.9026 237.116 43.3514 237.116 44.3238V49.6343C237.116 50.3823 237.116 51.2799 237.789 51.7287C238.163 51.9531 238.686 51.5791 239.21 51.7287C239.36 51.7287 239.584 51.9531 239.584 52.1027C239.584 52.8506 237.639 53.8978 236.368 54.8701C235.919 55.2441 235.62 56.1417 234.872 56.1417C234.423 56.1417 234.049 55.5433 234.049 54.8701V50.7563C233.226 51.5791 232.703 52.2522 231.88 52.8506C230.234 54.1222 229.038 55.2441 227.093 55.2441C224.625 55.2441 222.904 52.7758 222.904 50.3823ZM234.199 46.3433C234.199 45.5205 234.199 44.3986 233.6 43.6506C233.077 42.9774 231.955 42.6782 231.581 42.6782C228.664 42.6782 226.046 45.5205 226.046 47.914C226.046 49.9335 227.392 51.9531 229.337 51.9531C232.179 51.9531 234.199 49.4848 234.199 46.3433Z" fill="#F7F7F7"/>
<path d="M246.996 47.7644V50.0831C246.996 51.1303 246.772 52.0279 247.594 52.6262C248.342 53.1498 249.539 53.1498 250.811 53.1498C251.035 53.2994 251.484 53.2994 251.484 53.5986C251.484 54.0474 251.11 54.4214 250.736 54.4214C249.539 54.4214 248.268 54.4214 246.697 54.7205C245.724 54.8701 245.051 55.2441 243.929 55.2441C243.555 55.2441 242.957 54.9449 242.957 54.4962C242.957 54.1222 243.256 53.9726 243.406 53.5238C243.705 52.8506 243.854 52.327 243.854 51.4295V47.54C243.854 46.3433 243.705 45.5205 243.256 44.4734C242.957 43.9498 242.433 43.8002 242.433 43.2766C242.433 42.9026 242.508 42.5286 242.733 42.5286L245.724 40.6587C245.874 40.6587 246.173 40.5839 246.398 40.5839C246.996 40.5839 247.146 41.3319 247.146 41.8554C247.146 42.2294 246.996 42.6034 246.996 42.9774V45.9693C248.791 43.4262 251.11 40.5091 252.905 40.5091C254.326 40.5091 255.598 42.1546 255.598 43.8002C255.598 45.5953 254.85 47.0164 253.578 48.2132C252.83 48.9612 252.307 49.2604 251.409 49.6343C251.185 49.6343 250.885 49.5596 250.885 49.2604C250.736 49.036 250.811 48.7368 251.035 48.3628C251.783 47.8392 253.055 47.2408 253.055 45.8945C253.055 45.0717 252.381 44.0994 251.484 44.0994C249.988 44.0994 248.417 45.8945 246.996 47.7644Z" fill="#F7F7F7"/>
<path d="M257.192 43.127C257.192 42.9026 257.416 42.4538 257.715 42.2294L261.156 40.5091C261.38 40.4343 261.68 40.4343 261.829 40.5839C262.054 40.6587 261.979 41.1075 261.979 41.4067C261.979 44.249 261.829 46.4181 261.829 48.7368C261.829 49.6343 261.754 50.8311 261.979 51.1303C262.203 51.4295 262.652 51.7287 262.652 52.0279C262.652 52.701 261.68 53.3742 260.932 53.9726C260.109 54.4962 258.987 55.2441 258.538 55.2441C258.164 55.2441 258.089 54.7953 258.015 54.3466C257.94 53.9726 258.164 53.6734 258.314 53.2994C258.613 51.0555 258.613 50.0083 258.538 47.914C258.538 46.6425 258.762 45.8197 258.164 44.6977C258.015 44.0994 257.192 43.6506 257.192 43.127ZM258.463 34.0765C258.463 33.1042 259.436 32.057 260.483 32.057C261.605 32.057 262.577 33.1042 262.577 34.0765C262.577 35.1985 261.605 36.0961 260.483 36.0961C259.436 36.0961 258.463 35.1985 258.463 34.0765Z" fill="#F7F7F7"/>
<path d="M264.32 50.3823C264.32 47.8392 266.415 45.8945 267.686 44.4734C269.332 42.753 271.8 40.4343 275.091 40.4343C276.961 40.4343 279.728 41.0327 279.728 41.9302C279.728 42.9026 278.532 43.3514 278.532 44.3238V49.6343C278.532 50.3823 278.532 51.2799 279.205 51.7287C279.579 51.9531 280.102 51.5791 280.626 51.7287C280.776 51.7287 281 51.9531 281 52.1027C281 52.8506 279.055 53.8978 277.784 54.8701C277.335 55.2441 277.036 56.1417 276.288 56.1417C275.839 56.1417 275.465 55.5433 275.465 54.8701V50.7563C274.642 51.5791 274.119 52.2522 273.296 52.8506C271.65 54.1222 270.454 55.2441 268.509 55.2441C266.041 55.2441 264.32 52.7758 264.32 50.3823ZM275.615 46.3433C275.615 45.5205 275.615 44.3986 275.016 43.6506C274.493 42.9774 273.371 42.6782 272.997 42.6782C270.08 42.6782 267.462 45.5205 267.462 47.914C267.462 49.9335 268.808 51.9531 270.753 51.9531C273.595 51.9531 275.615 49.4848 275.615 46.3433Z" fill="#F7F7F7"/>
</svg>
