<svg width="206" height="138" viewBox="0 0 206 138" fill="none" xmlns="http://www.w3.org/2000/svg">
<path d="M85.1371 4.97478L92.9942 11.7857L7.85714 110L0 103.189L85.1371 4.97478Z" fill="#08A45B"/>
<path d="M103.211 0L111.068 6.81097L25.9307 105.025L18.0736 98.2143L103.211 0Z" fill="#E43437"/>
<path d="M76 38.16C81.888 38.16 88.672 41.488 88.672 47.376C88.672 50.064 87.52 51.472 86.496 53.648C85.472 55.568 84.704 56.592 83.168 57.872C82.528 57.872 81.888 58.256 81.632 57.744C81.248 57.36 81.248 56.976 81.504 56.592C82.528 55.44 83.424 54.544 83.424 53.52C83.424 51.472 80.864 49.168 78.688 47.504C75.488 45.328 72.16 44.048 68.704 44.048C64.48 44.048 60.384 45.328 56.672 48.528C53.216 51.344 50.912 54.544 50.912 59.024C50.912 68.752 62.944 72.592 71.264 72.592C88.288 72.592 97.76 79.248 97.76 94.992C97.76 106.384 92.768 113.552 85.216 121.488C76.128 131.216 65.888 137.232 51.936 137.232C41.184 137.232 30.176 129.68 30.176 118.672C30.176 113.552 32.736 105.104 39.008 100.624C39.648 100.624 40.16 100.24 40.416 100.624C40.672 100.88 40.8 101.52 40.672 101.904C37.728 104.592 35.68 108.048 35.68 112.656C35.68 124.944 49.12 129.68 58.464 129.68C67.296 129.68 77.152 126.992 84.064 119.824C89.312 114.32 91.744 109.328 91.744 101.648C91.744 87.184 82.4 81.552 71.136 81.552C58.08 81.552 45.024 76.688 45.024 64.656C45.024 57.488 49.376 52.24 55.136 47.12C61.408 41.232 68.32 38.16 76 38.16Z" fill="#F7F7F7"/>
<path d="M119.706 95.632C123.93 95.632 126.362 101.52 126.362 106.128C126.362 113.808 120.602 122 114.202 122C107.674 122 101.658 117.648 101.658 110.608C101.658 106.384 103.706 103.568 106.01 101.648C107.93 100.24 109.85 98.96 112.154 98.064C114.97 96.784 116.762 95.632 119.706 95.632ZM114.202 119.824C118.426 119.824 120.986 114.576 120.986 109.968C120.986 105.104 118.554 99.088 114.842 99.088C110.618 99.088 107.29 106 107.29 109.84C107.29 114.576 109.594 119.824 114.202 119.824Z" fill="#F7F7F7"/>
<path d="M147.069 66.32C150.653 66.32 154.493 68.496 154.493 72.72C154.493 74 154.237 75.024 153.469 75.92C153.085 76.688 152.701 77.584 151.805 77.584C150.909 77.584 150.909 76.432 150.909 75.28C150.909 72.464 148.861 68.88 145.533 68.88C140.029 68.88 138.109 75.92 137.469 81.424C136.445 90 136.317 96.144 136.445 103.568C137.853 102.16 138.621 100.88 140.285 99.6C142.589 98.064 144.125 96.784 146.941 96.784C151.165 96.784 153.853 101.008 153.853 105.232C153.853 109.328 152.573 112.016 150.269 115.216C147.197 119.184 144.125 122.256 139.773 122.256C137.725 122.256 135.933 121.872 133.629 121.872C132.349 121.872 131.709 122.128 130.301 122.128C129.789 122.128 129.405 121.488 129.405 121.104C129.405 120.336 130.045 119.696 130.045 118.928C131.197 113.68 130.685 109.456 130.685 103.568C130.685 89.744 132.733 77.456 137.341 71.696C139.517 69.008 142.845 66.32 147.069 66.32ZM143.357 102.288C138.621 102.288 136.061 106.128 136.061 108.688V113.424C136.061 115.856 137.853 117.264 141.309 117.264C146.557 117.264 149.885 114.32 149.885 109.712C149.885 105.872 146.813 102.288 143.357 102.288Z" fill="#F7F7F7"/>
<path d="M167.368 109.2V113.168C167.368 114.96 166.984 116.496 168.392 117.52C169.672 118.416 171.72 118.416 173.896 118.416C174.28 118.672 175.048 118.672 175.048 119.184C175.048 119.952 174.408 120.592 173.768 120.592C171.72 120.592 169.544 120.592 166.856 121.104C165.192 121.36 164.04 122 162.12 122C161.48 122 160.456 121.488 160.456 120.72C160.456 120.08 160.968 119.824 161.224 119.056C161.736 117.904 161.992 117.008 161.992 115.472V108.816C161.992 106.768 161.736 105.36 160.968 103.568C160.456 102.672 159.56 102.416 159.56 101.52C159.56 100.88 159.688 100.24 160.072 100.24L165.192 97.04C165.448 97.04 165.96 96.912 166.344 96.912C167.368 96.912 167.624 98.192 167.624 99.088C167.624 99.728 167.368 100.368 167.368 101.008V106.128C170.44 101.776 174.408 96.784 177.48 96.784C179.912 96.784 182.088 99.6 182.088 102.416C182.088 105.488 180.808 107.92 178.632 109.968C177.352 111.248 176.456 111.76 174.92 112.4C174.536 112.4 174.024 112.272 174.024 111.76C173.768 111.376 173.896 110.864 174.28 110.224C175.56 109.328 177.736 108.304 177.736 106C177.736 104.592 176.584 102.928 175.048 102.928C172.488 102.928 169.8 106 167.368 109.2Z" fill="#F7F7F7"/>
<path d="M202.096 101.648C202.864 102.032 203.376 101.776 204.144 101.648L205.552 102.928L188.272 112.016C188.912 113.04 189.552 114.064 190.448 115.088C191.856 116.624 193.648 118.032 195.44 118.032C198.256 118.032 200.304 116.24 202.48 114.832C202.48 114.32 203.12 114.448 203.504 114.448C203.888 114.832 203.888 115.472 203.504 115.728C202.224 117.392 201.328 118.416 199.408 119.44C196.72 121.104 195.056 121.872 191.856 121.872C185.584 121.488 182 115.6 182 109.456C182 107.792 182.128 106.768 182.64 105.36C184.176 102.928 185.584 101.52 188.144 99.6C190.832 97.808 193.264 96.272 195.952 96.272C199.28 96.272 201.456 101.136 202.096 101.648ZM191.344 100.112C188.528 100.112 187.504 103.184 187.504 105.744C187.504 107.28 187.632 108.688 187.76 110.096L194.416 106.768C195.696 106.128 196.592 105.232 196.592 103.696C196.592 101.648 193.392 100.112 191.344 100.112Z" fill="#F7F7F7"/>
</svg>
