<svg width="52" height="32" viewBox="0 0 52 32" fill="none" xmlns="http://www.w3.org/2000/svg">
<g clip-path="url(#clip0_38_2)">
<path d="M12.8109 12.7823C9.26342 12.7823 6.39545 15.6502 6.39545 19.1877C6.39545 22.7252 9.26342 25.5932 12.8009 25.5932C16.3384 25.5932 19.2063 22.7252 19.2063 19.1877C19.2163 15.6502 16.3484 12.7823 12.8109 12.7823ZM12.8109 23.7745C10.2827 23.7745 8.22416 21.7259 8.22416 19.1877C8.22416 16.6495 10.2727 14.601 12.8109 14.601C15.3491 14.601 17.3876 16.6595 17.3876 19.1877C17.3876 21.7159 15.3391 23.7745 12.8109 23.7745Z" fill="white"/>
<path d="M12.8309 22.3655C14.5914 22.3655 16.0186 20.9383 16.0186 19.1777C16.0186 17.4172 14.5914 15.99 12.8309 15.99C11.0703 15.99 9.64314 17.4172 9.64314 19.1777C9.64314 20.9383 11.0703 22.3655 12.8309 22.3655Z" fill="white"/>
<path d="M38.3927 12.7823C34.8552 12.7823 31.9873 15.6502 31.9873 19.1877C31.9873 22.7252 34.8552 25.5932 38.3927 25.5932C41.9302 25.5932 44.7982 22.7252 44.7982 19.1877C44.7982 15.6502 41.9302 12.7823 38.3927 12.7823ZM38.3927 23.7745C35.8645 23.7745 33.806 21.7259 33.806 19.1877C33.806 16.6495 35.8545 14.601 38.3927 14.601C40.9309 14.601 42.9695 16.6595 42.9695 19.1877C42.9695 21.7159 40.9209 23.7745 38.3927 23.7745Z" fill="white"/>
<path d="M38.4127 22.3655C40.1732 22.3655 41.6004 20.9383 41.6004 19.1777C41.6004 17.4172 40.1732 15.99 38.4127 15.99C36.6522 15.99 35.225 17.4172 35.225 19.1777C35.225 20.9383 36.6522 22.3655 38.4127 22.3655Z" fill="white"/>
<path d="M47.4063 10.1142L51.1736 6.37681H43.5391C39.2621 2.89928 32.1571 0.00134277 25.5718 0.00134277C18.9765 0.00134277 11.9315 2.89928 7.65456 6.37681H0L3.76732 10.1142C1.43898 12.4325 0 15.6402 0 19.1877C0 26.2627 5.73592 31.9986 12.8109 31.9986C16.0586 31.9986 19.0265 30.7895 21.2849 28.7909L25.6218 31.9786L29.9087 28.8608L29.8588 28.7409C32.1272 30.7595 35.105 31.9886 38.3827 31.9886C45.4577 31.9886 51.1936 26.2527 51.1936 19.1777C51.1836 15.6402 49.7347 12.4325 47.4063 10.1142ZM36.7739 6.47674C30.7082 7.2362 25.9516 12.2327 25.5918 18.4183C25.2221 12.2227 20.4555 7.21622 14.3698 6.47674C17.4276 4.2783 21.3248 3.19907 25.5718 3.19907C29.8188 3.19907 33.716 4.2783 36.7739 6.47674ZM12.8109 28.8009C7.49467 28.8009 3.19773 24.4939 3.19773 19.1877C3.19773 13.8815 7.50467 9.57454 12.8109 9.57454C18.1171 9.57454 22.4241 13.8815 22.4241 19.1877C22.4141 24.4939 18.1171 28.8009 12.8109 28.8009ZM38.3927 28.8009C33.0865 28.8009 28.7795 24.4939 28.7795 19.1877C28.7795 13.8815 33.0865 9.57454 38.3927 9.57454C43.6989 9.57454 48.0059 13.8815 48.0059 19.1877C47.9959 24.4939 43.6989 28.8009 38.3927 28.8009Z" fill="#F7F7F7"/>
</g>
<defs>
<clipPath id="clip0_38_2">
<rect width="51.1836" height="32" fill="white"/>
</clipPath>
</defs>
</svg>
