<svg width="52" height="32" viewBox="0 0 52 32" fill="none" xmlns="http://www.w3.org/2000/svg">
<g clip-path="url(#clip0_55_52)">
<path d="M12.8109 12.7822C9.26347 12.7822 6.39551 15.6502 6.39551 19.1877C6.39551 22.7252 9.26347 25.5931 12.801 25.5931C16.3384 25.5931 19.2064 22.7252 19.2064 19.1877C19.2164 15.6502 16.3484 12.7822 12.8109 12.7822ZM12.8109 23.7744C10.2827 23.7744 8.22421 21.7259 8.22421 19.1877C8.22421 16.6495 10.2728 14.6009 12.8109 14.6009C15.3491 14.6009 17.3877 16.6595 17.3877 19.1877C17.3877 21.7159 15.3392 23.7744 12.8109 23.7744Z" fill="#636363"/>
<path d="M12.8309 22.3655C14.5915 22.3655 16.0187 20.9383 16.0187 19.1777C16.0187 17.4172 14.5915 15.99 12.8309 15.99C11.0704 15.99 9.64319 17.4172 9.64319 19.1777C9.64319 20.9383 11.0704 22.3655 12.8309 22.3655Z" fill="#636363"/>
<path d="M38.3928 12.7822C34.8553 12.7822 31.9873 15.6502 31.9873 19.1877C31.9873 22.7252 34.8553 25.5931 38.3928 25.5931C41.9302 25.5931 44.7982 22.7252 44.7982 19.1877C44.7982 15.6502 41.9302 12.7822 38.3928 12.7822ZM38.3928 23.7744C35.8645 23.7744 33.806 21.7259 33.806 19.1877C33.806 16.6495 35.8546 14.6009 38.3928 14.6009C40.9309 14.6009 42.9695 16.6595 42.9695 19.1877C42.9695 21.7159 40.921 23.7744 38.3928 23.7744Z" fill="#636363"/>
<path d="M38.4127 22.3655C40.1732 22.3655 41.6004 20.9383 41.6004 19.1777C41.6004 17.4172 40.1732 15.99 38.4127 15.99C36.6522 15.99 35.225 17.4172 35.225 19.1777C35.225 20.9383 36.6522 22.3655 38.4127 22.3655Z" fill="#636363"/>
<path d="M47.4063 10.1143L51.1736 6.37693H43.5391C39.2621 2.89941 32.1571 0.00146484 25.5718 0.00146484C18.9765 0.00146484 11.9315 2.89941 7.65456 6.37693H0L3.76732 10.1143C1.43898 12.4326 0 15.6404 0 19.1878C0 26.2628 5.73592 31.9987 12.8109 31.9987C16.0586 31.9987 19.0265 30.7896 21.2849 28.791L25.6218 31.9787L29.9087 28.861L29.8588 28.741C32.1272 30.7596 35.105 31.9887 38.3827 31.9887C45.4577 31.9887 51.1936 26.2528 51.1936 19.1778C51.1836 15.6403 49.7347 12.4326 47.4063 10.1143ZM36.7739 6.47686C30.7082 7.23632 25.9516 12.2328 25.5918 18.4184C25.2221 12.2228 20.4555 7.21634 14.3698 6.47686C17.4276 4.27843 21.3248 3.19919 25.5718 3.19919C29.8188 3.19919 33.716 4.27843 36.7739 6.47686ZM12.8109 28.801C7.49467 28.801 3.19773 24.4941 3.19773 19.1878C3.19773 13.8816 7.50467 9.57466 12.8109 9.57466C18.1171 9.57466 22.4241 13.8816 22.4241 19.1878C22.4141 24.4941 18.1171 28.801 12.8109 28.801ZM38.3927 28.801C33.0865 28.801 28.7795 24.4941 28.7795 19.1878C28.7795 13.8816 33.0865 9.57466 38.3927 9.57466C43.6989 9.57466 48.0059 13.8816 48.0059 19.1878C47.9959 24.4941 43.6989 28.801 38.3927 28.801Z" fill="#636363"/>
</g>
<defs>
<clipPath id="clip0_55_52">
<rect width="51.1836" height="32" fill="white"/>
</clipPath>
</defs>
</svg>
