<svg width="161" height="34" viewBox="0 0 161 34" fill="none" xmlns="http://www.w3.org/2000/svg">
<path d="M16.6083 21.5612C16.1698 21.7893 15.6284 22.0775 15.2668 22.4262C15.0823 22.6041 14.4699 23.0686 14.6512 22.8873C14.8543 22.6842 15.1363 22.5763 15.333 22.3578C15.4492 22.2287 15.5205 22.0336 15.5978 21.879C15.8132 21.4482 16.0718 21.0337 16.3612 20.6478C16.8019 20.0601 16.12 19.6719 15.6971 19.3018C15.5206 19.1475 15.4319 18.8718 15.6949 18.7326C15.9056 18.621 16.1347 18.5643 16.3105 18.4237C16.3744 18.3725 16.4342 18.274 16.4892 18.2052C16.5582 18.119 16.8039 18.2208 16.8863 18.2251C17.072 18.2349 17.2924 18.4696 17.4115 18.5914C17.7263 18.9133 17.9351 19.3185 18.2742 19.6152C18.5906 19.892 18.9183 19.9664 19.3002 20.1226C19.9534 20.3899 20.6246 20.5286 21.3301 20.5286C21.794 20.5286 22.2444 20.5246 22.6628 20.2903C22.9927 20.1056 23.2078 19.859 23.4612 19.5945M23.4612 19.5945C23.4701 19.5852 23.479 19.5759 23.488 19.5666C23.654 19.3945 23.7537 19.1702 23.8763 18.9709C24.0292 18.7225 24.0006 18.6514 23.6954 18.7613C23.5586 18.8105 22.5845 19.2517 22.9717 19.3857C23.1389 19.4436 23.3013 19.5157 23.4612 19.5945ZM23.4612 19.5945C23.7415 19.7327 24.014 19.8914 24.2911 20.03C25.2059 20.4874 26.1822 20.8403 26.9896 21.4862C27.6277 21.9967 28.0613 22.6332 28.5474 23.2734C29.1775 24.1033 29.816 24.9902 30.5574 25.7226C30.9381 26.0986 31.4695 26.3745 31.9298 26.6449C32.7804 27.1444 33.4723 27.88 34.3018 28.4078C34.9461 28.8178 35.5971 29.3528 36.3074 29.6434C36.5357 29.7368 36.7612 29.9233 37.0135 29.9413C37.2198 29.956 37.4199 30.1491 37.618 30.1774C37.7599 30.1976 37.9125 30.292 37.9755 30.4179M29.2777 26.5654C29.2812 26.5372 29.3051 26.5106 29.3174 26.486C28.9793 26.486 28.5847 26.7589 28.3422 26.9626C28.2528 27.0377 28.1633 27.1176 28.0777 27.2024M28.0777 27.2024C27.9369 27.342 27.807 27.4945 27.7067 27.6598C27.5973 27.8402 27.566 28.0769 27.7818 27.726C27.8802 27.5658 27.9823 27.3893 28.0777 27.2024ZM28.0777 27.2024C28.3629 26.6442 28.5894 25.9934 28.4878 25.4092C28.4123 24.975 27.966 24.7723 27.5611 24.8532C27.543 24.8569 27.5249 24.8609 27.507 24.8654M27.507 24.8654C27.2393 24.9328 27.0025 25.0954 26.7963 25.2948M27.507 24.8654C27.4035 25.3698 27.0123 25.882 26.7271 26.2786C26.7064 26.3074 25.9231 27.3008 25.8401 27.0685C25.7943 26.9403 25.828 26.7729 25.8958 26.6022M27.507 24.8654C27.5127 24.8378 27.5175 24.8102 27.5214 24.7826C27.5482 24.5921 27.1141 24.7949 26.9432 24.8834M26.7963 25.2948C26.5978 25.4868 26.4277 25.7129 26.2858 25.9211L26.2826 25.9259C26.182 26.0734 25.9992 26.3416 25.8958 26.6022M26.7963 25.2948C26.6324 25.7104 26.4234 26.1212 26.1269 26.4595C26.0174 26.5845 25.9423 26.6207 25.8958 26.6022M26.7963 25.2948C26.7975 25.2918 26.7987 25.2887 26.7999 25.2857L26.8023 25.2795C26.8468 25.1664 26.9016 25.0267 26.9432 24.8834M25.8958 26.6022C25.8215 26.5726 25.8198 26.404 25.8666 26.2345C26.0159 25.6932 26.4088 25.2195 26.8771 24.9194C26.8831 24.9156 26.9074 24.902 26.9432 24.8834M26.9432 24.8834C26.9839 24.7433 27.0119 24.5996 27.0051 24.4737C26.9908 24.2112 25.9417 24.6306 25.8754 24.6546C25.4282 24.8168 24.9916 25.0113 24.5824 25.2548C24.4596 25.3279 24.3075 25.4155 24.1659 25.5183M24.1659 25.5183C24.0058 25.6344 23.8592 25.7699 23.7837 25.9256C23.6772 26.1452 23.9276 25.8456 24.1659 25.5183ZM24.1659 25.5183C24.2429 25.4125 24.3186 25.3038 24.3806 25.2087M24.3806 25.2087C24.4222 25.1449 24.4577 25.0872 24.4831 25.0408C24.7634 24.5295 25.0545 23.9013 25.1362 23.3153C25.175 23.0377 24.6817 23.4499 24.6508 23.4742C24.172 23.8504 23.6787 24.348 23.5233 24.9569C23.3887 25.4846 23.8721 25.487 24.2316 25.2945C24.2817 25.2677 24.3314 25.2391 24.3806 25.2087ZM24.3806 25.2087C24.9363 24.8664 25.4318 24.3094 25.7386 23.75C25.7386 23.75 25.759 23.6943 25.783 23.6252M25.783 23.6252C25.829 23.4927 25.8883 23.3107 25.8423 23.3771C25.798 23.4411 25.7813 23.5333 25.783 23.6252ZM25.783 23.6252C25.7846 23.7088 25.8015 23.7921 25.8269 23.8537C25.9928 24.2568 26.3696 23.5875 26.3696 23.397C26.3696 23.1705 26.0792 22.9183 25.8798 22.8564C25.3549 22.6935 24.7562 22.2945 24.1853 22.4129C23.2368 22.6095 22.32 23.0107 21.3346 22.9424C20.6584 22.8956 19.9364 22.8986 19.2693 22.7836C19.0983 22.7541 19.0004 22.6451 18.8854 22.5276C18.1778 21.8046 17.2956 21.335 16.5775 20.6169C16.2469 20.2863 15.8536 19.9931 15.4654 19.7343C15.2283 19.5762 14.9618 19.4708 14.7241 19.3195C14.5859 19.2316 14.3337 19.2393 14.2453 19.3768C14.082 19.6307 13.8448 19.9497 13.6275 20.1535C13.0467 20.698 12.4773 21.2395 11.838 21.7245C11.3132 22.1226 10.8555 22.6377 10.3752 23.0903C9.95797 23.4834 9.56962 23.9135 9.16384 24.3193C7.69988 25.7832 6.29171 27.2942 4.75096 28.6792C4.29532 29.0888 3.88778 29.5535 3.41386 29.9413C3.24871 30.0764 3.11039 30.2379 2.94609 30.3693C2.83933 30.4547 2.78406 30.5805 2.65043 30.6186C2.58068 30.6386 2.39061 30.7846 2.35035 30.8349C2.30593 30.8904 1.98673 31.0533 2.21356 31.0533C3.6699 31.0533 5.14004 31.1378 6.59996 30.8945C7.12772 30.8065 7.63122 30.6935 8.14208 30.6105M8.14208 30.6105C8.53249 30.5471 8.92721 30.5012 9.34035 30.4973C10.1108 30.4901 10.8106 30.4363 11.5733 30.5944C12.0462 30.6924 12.547 30.7683 13.003 30.9342C13.1432 30.9851 13.3521 31.0081 13.5017 31.0136C13.6211 31.018 13.694 30.978 13.5458 31.0357C13.0473 31.2295 12.3967 31.2443 11.8711 31.3093C11.387 31.3691 10.9018 31.4226 10.4149 31.4483C10.096 31.4651 9.72909 31.4881 9.42199 31.3887C9.08977 31.2812 8.7682 31.0547 8.48646 30.8547C8.37328 30.7744 8.2587 30.6919 8.14208 30.6105ZM8.14208 30.6105C7.65816 30.2729 7.13925 29.9558 6.54038 29.9038C6.22079 29.876 5.88812 29.9016 5.56734 29.9016M4.73328 29.981C5.19651 29.965 5.69707 29.6589 6.07479 29.4161C6.60427 29.0757 7.05662 28.6303 7.51339 28.2026C8.70161 27.0898 9.72298 25.8295 11.0172 24.8267C11.5992 24.3758 12.1615 23.9031 12.7382 23.4455C12.8636 23.346 12.9922 23.2504 13.119 23.1527M13.119 23.1527C13.2823 23.0269 13.4428 22.8978 13.5899 22.7527C13.9131 22.434 14.3917 22.0357 14.5608 21.6009C14.5819 21.5466 14.6639 21.2859 14.6314 21.3185C14.4049 21.545 14.2137 21.8202 14.0136 22.0687C13.7196 22.4337 13.4199 22.7937 13.119 23.1527ZM13.119 23.1527C12.9569 23.346 12.7945 23.539 12.6323 23.7323C11.6354 24.921 10.5845 26.0585 9.54773 27.2119C9.04446 27.7718 8.46263 28.2697 8.0319 28.891C7.87301 29.1202 7.71897 29.3533 7.56193 29.5838C7.5031 29.6702 7.39865 29.8021 7.39865 29.9148C7.39865 30.0581 7.94333 29.9478 7.99439 29.9302C8.36203 29.8034 8.69195 29.5134 9.00053 29.2881C9.35427 29.0299 9.70864 28.7712 10.0587 28.5073M10.0587 28.5073C10.2249 28.3821 10.3901 28.2557 10.5539 28.1276C11.595 27.313 12.6284 26.4238 13.481 25.4067M10.0587 28.5073C10.7687 27.6393 11.7208 26.9753 12.5617 26.2477C12.8736 25.9778 13.1812 25.6973 13.481 25.4067M10.0587 28.5073C9.93989 28.6526 9.82785 28.8036 9.72424 28.9616C9.52682 29.2626 9.04874 30.253 9.74631 30.3693C10.3129 30.4637 10.9032 30.0222 11.3482 29.7338C11.8952 29.3794 12.38 28.9638 12.8621 28.5363M13.481 25.4067C13.5146 25.3666 13.548 25.3262 13.5811 25.2857C14.0018 24.77 14.3829 24.2293 14.852 23.7544C14.9005 23.7053 15.3929 23.2402 15.2227 23.4632C14.6989 24.1495 14.1072 24.7998 13.481 25.4067ZM12.8621 28.5363C13.0059 28.4088 13.1494 28.2802 13.2943 28.1518C13.9137 27.6029 14.4293 26.9773 14.9822 26.3646C15.1229 26.2086 15.266 26.0543 15.4098 25.9003M12.8621 28.5363C13.1063 28.2576 13.3675 27.9922 13.6164 27.7216C14.2122 27.0738 14.7835 26.4049 15.3686 25.7479M12.8621 28.5363C12.6959 28.7259 12.5376 28.9216 12.3962 29.1293C12.2698 29.3151 12.1601 29.4978 12.1601 29.725C12.1601 29.8628 12.2096 29.9529 12.2594 30.0803C12.3521 30.3171 12.4944 30.3045 12.725 30.2987C13.4502 30.2806 14.1486 29.6865 14.7677 29.3084M15.4098 25.9003C15.7837 25.4999 16.1624 25.1024 16.5179 24.6877C16.5684 24.6288 16.8925 24.2205 16.8003 24.2839C16.3195 24.6145 15.9353 25.1167 15.5492 25.546C15.4889 25.6132 15.4287 25.6804 15.3686 25.7479M15.4098 25.9003C15.3994 25.8679 15.3898 25.8351 15.3815 25.802C15.3771 25.784 15.3728 25.766 15.3686 25.7479M15.4098 25.9003C15.4698 26.0878 15.5582 26.2654 15.5978 26.4595C15.6499 26.7147 15.6594 26.926 15.5669 27.17C15.5245 27.2817 15.4416 27.3614 15.408 27.4789C15.3254 27.7682 15.329 27.7415 15.536 27.9157C15.5915 27.9625 15.6881 27.9742 15.7857 27.9664M15.3686 25.7479C15.3033 25.4599 15.2847 25.1498 15.3154 24.8576C15.3829 24.2144 15.6714 23.6148 16.2023 23.2381C16.5072 23.0218 17.0546 22.7248 17.3982 23.0528C17.5748 23.2213 17.6762 23.4432 17.6762 23.6882C17.6762 24.3923 17.5171 25.2002 17.2592 25.8505C17.065 26.3402 16.7782 26.7488 16.4428 27.1501C16.219 27.418 16.0008 27.691 15.7857 27.9664M14.7677 29.3084C14.8094 29.2829 14.8508 29.2585 14.8917 29.2352C15.1645 29.0803 15.396 28.8938 15.6154 28.6703C15.719 28.5648 15.8089 28.4481 15.9089 28.3394C15.9573 28.2868 16.0397 28.1975 15.9376 28.3173C15.5155 28.8125 15.0962 29.335 14.6225 29.7824C14.5329 29.8671 14.4566 29.9867 14.3644 30.0604C14.0872 30.2821 14.4235 29.7827 14.7677 29.3084ZM14.7677 29.3084C14.9311 29.0833 15.0962 28.8639 15.1984 28.7299C15.393 28.4748 15.5881 28.2196 15.7857 27.9664M15.7857 27.9664C15.888 27.9583 15.9914 27.9289 16.0501 27.8959C16.2607 27.7774 16.4671 27.6154 16.6878 27.5208C16.8404 27.4554 16.9387 27.2662 17.0298 27.1347C17.2256 26.8518 17.3776 26.5547 17.513 26.2388C17.8787 25.3854 18.2656 24.3374 19.1281 23.8669C19.1793 23.839 19.2296 23.7804 19.2296 23.7213C19.2296 23.4074 19.1835 23.1304 19.2516 22.8145C19.2904 22.6349 19.3192 22.3372 19.4083 22.1768C19.4494 22.1028 19.4145 22.0399 19.4899 21.9782C19.7693 21.7496 20.3077 21.6643 20.6461 21.6274C21.6107 21.5223 22.5908 21.6459 23.5586 21.5568C23.8129 21.5334 24.0705 21.5072 24.3236 21.4614M24.3236 21.4614C24.4556 21.4375 24.5863 21.4083 24.7148 21.3714C24.7758 21.3539 24.9436 21.309 24.8847 21.2854C24.7633 21.2368 24.6007 21.3182 24.4966 21.3702L24.4941 21.3714C24.4365 21.4003 24.3796 21.4303 24.3236 21.4614ZM24.3236 21.4614C23.8871 21.7034 23.496 22.0109 23.1129 22.3335C22.5656 22.7944 22.09 23.3481 21.5394 23.8037M21.5394 23.8037C21.4851 23.8486 21.4301 23.8925 21.3742 23.9353C20.6703 24.4748 19.8098 24.7221 19.0795 25.2151C18.8495 25.3704 18.637 25.587 18.4441 25.7799C18.3246 25.8994 18.1755 25.9911 18.0558 26.1109C17.972 26.1947 17.8781 26.2992 17.7799 26.3646C17.7169 26.4066 17.6664 26.4985 17.6189 26.5257C17.5893 26.5426 17.5607 26.5636 17.5412 26.5792M21.5394 23.8037C21.4776 23.8182 21.4159 23.8335 21.3544 23.8493C20.5253 24.0625 19.8633 24.4753 19.2097 25.0187C18.6382 25.4939 18.1348 26.0273 17.5924 26.5323C17.5701 26.5531 17.5533 26.5684 17.5412 26.5792M21.5394 23.8037C21.9862 23.6982 22.4388 23.6256 22.8967 23.5889C23.0985 23.5728 23.0471 23.7602 23.018 23.9088C22.9391 24.3121 22.6891 24.5946 22.3583 24.8179C22.1543 24.9556 21.9429 25.063 21.7264 25.1577M17.5412 26.5792C17.5118 26.6026 17.5028 26.6135 17.5412 26.5792ZM21.7264 25.1577C21.5692 25.2265 21.4094 25.2887 21.2479 25.351M21.7264 25.1577C21.6657 25.1551 21.5917 25.1756 21.4934 25.2239C21.4162 25.2618 21.3336 25.307 21.2479 25.351M21.7264 25.1577C21.859 25.1636 21.9283 25.2805 22.0494 25.4622C22.1416 25.6005 22.2164 25.8802 22.3473 25.9675C22.6934 26.1982 23.0076 26.6037 23.4218 26.7221C23.6948 26.8 23.8563 27.1474 24.1146 27.2803C24.5564 27.5075 24.8869 27.7383 25.1958 28.154C25.3573 28.3715 25.5113 28.5975 25.7033 28.7895C25.9169 29.0031 26.1673 29.1917 26.3586 29.4272C26.5915 29.7138 26.8722 30.0032 27.0536 30.3208C27.1535 30.4956 27.3727 30.5448 27.5501 30.5988C28.068 30.7564 28.7391 30.7595 29.2689 30.6561C30.2256 30.4695 31.2874 30.5767 32.2564 30.5767C32.9497 30.5767 33.6539 30.5578 34.3393 30.676C34.8196 30.7588 35.3249 30.8547 35.811 30.8547C36.0595 30.8547 36.2959 30.9342 36.5457 30.9342M21.2479 25.351C21.1421 25.3918 21.0355 25.4326 20.9285 25.4754C20.8917 25.4902 20.6232 25.5381 20.7167 25.5328C20.8923 25.5228 21.0761 25.4393 21.2479 25.351ZM39.2464 31.0533C39.2359 31.1376 39.0351 31.1725 38.9684 31.1725M34.9968 27.6775C34.9525 27.6184 34.879 27.4783 34.9571 27.4392M36.0692 28.3129C35.8634 28.3129 35.5911 28.0872 35.4337 27.9731C35.0302 27.6805 34.608 27.4199 34.1915 27.1457C33.9621 26.9946 33.7307 26.8443 33.515 26.6745M33.515 26.6745C33.4054 26.5882 33.2999 26.4968 33.2008 26.3977C32.5501 25.747 31.9876 25.0212 31.343 24.3766C30.7643 23.798 30.2158 23.1481 29.7544 22.4747C29.4837 22.0796 29.2002 21.6822 28.8608 21.3428C28.1966 20.6786 27.561 19.9977 26.886 19.3459C26.5777 19.0482 26.2614 18.7498 25.9416 18.4656C25.7341 18.2811 25.4957 18.125 25.3062 17.925C25.1431 17.7528 24.8348 17.5425 24.5935 17.5124C24.4896 17.4994 24.4011 17.4705 24.2934 17.4705C24.0304 17.4705 23.9252 17.9931 23.9051 18.1655C23.8315 18.7955 24.0714 19.4176 24.3309 19.977C24.7547 20.8902 25.0236 21.8316 25.1473 22.8321C25.2529 23.6855 25.1923 24.5311 24.8384 25.3254C24.688 25.6631 24.4854 25.9734 24.3309 26.3095C24.1445 26.7152 24.6149 27.1194 24.8759 27.3421C25.3513 27.7476 25.9293 28.0765 26.2814 28.5887C26.5751 29.0158 27.0953 29.4121 27.57 29.5926C27.8325 29.6924 28.1734 29.7835 28.4459 29.6544C28.6668 29.5498 28.7942 29.3739 28.859 29.1674M33.515 26.6745C33.4904 26.8747 33.4775 27.077 33.4877 27.2803C33.4915 27.3566 33.5438 27.4253 33.5671 27.4965C33.6246 27.6723 33.655 27.8619 33.6862 28.0437C33.7428 28.3729 33.7655 28.7392 33.6553 29.0587C33.6112 29.1866 33.323 29.3058 33.1898 29.3058C32.9807 29.3058 32.7368 29.3436 32.5543 29.222C32.4694 29.1654 32.3955 29.0891 32.3485 28.9989M33.515 26.6745C33.5195 26.6381 33.5244 26.6017 33.5296 26.5654C33.5498 26.4237 33.6482 26.1219 33.5075 26.0094C33.4649 25.9753 33.4531 25.9023 33.3994 25.8593C33.3519 25.8213 33.2462 25.7948 33.1876 25.7623C33.0371 25.6786 32.95 25.6122 32.7728 25.6122M28.859 29.1674C28.88 29.1003 28.8945 29.03 28.9034 28.9579M28.859 29.1674C28.857 29.103 28.8644 29.0353 28.8781 28.9672M28.859 29.1674C28.8621 29.2666 28.8876 29.3582 28.9468 29.4316C29.1578 29.6932 29.3489 29.5058 29.4975 29.2009M28.9034 28.9579C28.9086 28.9157 28.912 28.8729 28.9136 28.8298M28.9034 28.9579C28.895 28.9611 28.8865 28.9641 28.8781 28.9672M28.9034 28.9579C29.07 28.8961 29.2364 28.8187 29.3898 28.725M28.9136 28.8298C28.924 28.5567 28.8671 28.2696 28.7968 28.0393C28.7143 27.7695 28.5039 27.1801 28.1437 27.1611C27.9472 27.1508 27.7709 27.4283 27.6715 27.5539C27.4304 27.8583 27.0121 28.3663 27.089 28.7939C27.1783 29.2907 28.1686 29.1542 28.4746 29.0852C28.604 29.056 28.7409 29.0168 28.8781 28.9672M28.9136 28.8298C28.9631 28.6703 29.0364 28.5193 29.0924 28.4144C29.2012 28.2109 29.3464 27.9894 29.5272 27.8208M28.9136 28.8298C28.8995 28.8752 28.8874 28.9213 28.8781 28.9672M29.3898 28.725C29.5241 28.6428 29.6484 28.5481 29.7541 28.4401M29.3898 28.725C29.3862 28.4197 29.4405 28.0872 29.5272 27.8208M29.3898 28.725C29.391 28.8288 29.3989 28.9295 29.4146 29.0234C29.4271 29.0987 29.4565 29.1566 29.4975 29.2009M29.7541 28.4401C29.8193 28.3734 29.8775 28.3016 29.9265 28.2246C30.0084 28.0958 30.1845 27.4335 29.7897 27.6333C29.7809 27.6378 29.7722 27.6423 29.7635 27.6471M29.7541 28.4401C29.7006 28.6627 29.6116 28.9665 29.4975 29.2009M29.7541 28.4401C29.7859 28.3075 29.8051 28.2037 29.8095 28.1607C29.8224 28.0343 29.8079 27.7863 29.7635 27.6471M29.7635 27.6471C29.679 27.6932 29.6002 27.7527 29.5272 27.8208M29.7635 27.6471C29.7184 27.5056 29.6427 27.4764 29.5337 27.801C29.5315 27.8076 29.5293 27.8141 29.5272 27.8208M29.4975 29.2009C29.628 29.3423 29.8762 29.3466 30.0721 29.3455C30.3398 29.344 30.6906 29.2784 30.982 29.1316M30.982 29.1316C31.0222 29.1113 31.0614 29.0895 31.099 29.066M30.982 29.1316C30.9268 28.8319 31.0147 28.4484 31.0826 28.2136C31.1273 28.0594 31.2183 28.1693 31.2614 28.2688C31.3047 28.3691 31.3264 28.4823 31.3331 28.5996M30.982 29.1316C30.9909 29.1804 31.0037 29.227 31.021 29.2703M31.099 29.066C31.183 29.0137 31.2594 28.9535 31.324 28.8848M31.099 29.066C31.1667 28.9067 31.2454 28.7491 31.3331 28.5996M31.099 29.066C31.0826 29.1047 31.0668 29.1435 31.0517 29.1822C31.0478 29.1925 31.0348 29.2268 31.021 29.2703M31.324 28.8848C31.4415 28.7599 31.5203 28.607 31.535 28.4232C31.5462 28.2825 31.4385 28.43 31.4158 28.4651C31.3875 28.5091 31.3599 28.554 31.3331 28.5996M31.324 28.8848C31.3107 29.0065 31.2874 29.1251 31.2614 29.2308C31.245 29.2974 31.2192 29.402 31.1679 29.4719M31.324 28.8848C31.3343 28.7901 31.3385 28.6935 31.3331 28.5996M31.021 29.2703C30.9879 29.374 30.9493 29.5305 31.012 29.5419C31.0811 29.5544 31.1311 29.5221 31.1679 29.4719M31.021 29.2703C31.053 29.3507 31.1005 29.4201 31.1679 29.4719M31.1679 29.4719C31.2197 29.5117 31.2833 29.5411 31.3606 29.5573C31.7566 29.6404 32.3037 29.4188 32.3485 28.9989M32.3485 28.9989C32.3559 28.9299 32.3497 28.8555 32.3271 28.7763C32.3068 28.7052 32.2995 28.8486 32.3006 28.8557C32.3087 28.9063 32.3253 28.9543 32.3485 28.9989ZM24.1941 17.1924C24.3766 17.1742 24.6105 16.922 24.7501 16.8129C24.9557 16.6523 25.1654 16.4594 25.3503 16.2746C25.7109 15.9139 26.1424 15.6514 26.4976 15.2861C26.7308 15.0463 26.8448 14.7403 27.0911 14.494C27.3823 14.2028 27.6157 13.8472 27.8877 13.5364C28.165 13.2194 28.3788 12.8802 28.682 12.5854C28.9753 12.3002 29.3474 12.0253 29.5955 11.7028C29.6737 11.6011 29.8176 11.5293 29.9132 11.4336L30.2706 11.0762C30.5727 10.7741 30.9093 10.4746 31.2238 10.1826C31.8574 9.59429 32.284 8.79448 32.9316 8.21885C33.2054 7.97549 33.5063 7.7079 33.7347 7.42233C34.1417 6.91364 34.6655 6.50335 35.0762 6.00138C35.5095 5.47187 36.1702 5.13684 36.5634 4.56499C36.7165 4.34222 36.8754 4.15398 36.9517 3.89644C37.0225 3.65769 37.0224 3.44381 37.0223 3.19633L37.0223 3.17273C37.0223 2.92103 37.0621 2.68039 37.0621 2.427C37.0621 2.17578 37.7214 2.2009 37.927 2.17106C38.362 2.10791 38.7814 2.06799 39.2155 1.97248C39.4674 1.91707 39.7013 1.80644 39.9525 1.75183C40.05 1.73063 40.1574 1.71817 40.2393 1.66357M40.2393 1.74304C40.0323 2.04207 39.7936 2.31542 39.5642 2.59693C39.4305 2.76103 39.2744 2.97468 39.0876 3.08456C38.9325 3.17578 38.8902 3.25225 38.6904 3.25225M38.2932 3.41101C38.2758 3.49801 38.1456 3.63708 38.0947 3.71991C38.0501 3.79234 38.0098 3.89032 37.9358 3.92732M37.6181 2.06067C37.3083 2.31238 36.9246 2.54811 36.5458 2.31662C36.3431 2.19279 36.1971 2.04398 35.9677 1.96138C35.6748 1.85594 35.3221 1.8621 35.0145 1.8621C33.7807 1.8621 32.5559 1.66352 31.3231 1.66352C30.6003 1.66352 29.4403 1.47992 28.8718 2.0695C28.7505 2.19528 28.5721 2.43534 28.5254 2.59905C28.4513 2.85827 28.1804 3.09415 28.0046 3.29187C27.4308 3.93749 26.7029 4.43107 26.0608 5.00186C25.6913 5.3303 25.3679 5.69254 25.0193 6.04109C24.6694 6.39099 24.2292 6.67367 23.9249 7.06488C23.2519 7.93016 22.4189 8.64153 21.6501 9.41032C21.3836 9.67681 21.0907 9.90466 20.8183 10.1627C20.6904 10.2838 20.414 10.4549 20.3417 10.5996C20.3417 9.88832 19.6841 9.40544 19.1501 9.01979C18.9826 8.89878 18.7869 8.78707 18.6117 8.67558C18.4146 8.55012 18.2843 8.38345 18.1175 8.21665C17.924 8.02312 17.7384 7.81896 17.5217 7.6518C17.4244 7.57672 17.2021 7.45627 17.1643 7.3429M19.7856 10.5202C19.4701 10.5202 19.1985 10.2509 18.9912 10.0436C18.7341 9.78655 18.631 9.58234 18.4948 9.24932C18.2757 8.71373 18.3703 7.93697 17.9586 7.48417C17.8122 7.32311 17.612 7.30324 17.4026 7.30324C17.2222 7.30324 17.0558 7.2179 16.8841 7.16424C16.4196 7.01907 15.8638 7.06495 15.3771 7.06495C15.0022 7.06495 14.6553 7.15445 14.2849 7.18189C13.889 7.21122 13.4759 7.22074 13.0824 7.27235C12.5647 7.34025 12.027 7.30324 11.5048 7.30324H9.65801C8.77152 7.30324 7.81645 7.40507 6.98821 7.07377C6.87852 7.0299 6.63521 6.9006 6.56017 6.8068C6.50288 6.73519 6.21565 6.74722 6.12329 6.74722M5.76584 6.74719C5.62153 6.76523 6.08358 7.38187 6.13211 7.43119C6.52732 7.83278 6.97525 8.14365 7.47362 8.40643C7.95906 8.66239 8.25768 9.15963 8.70261 9.46552C9.70349 10.1536 10.3679 11.2121 11.165 12.1088C11.484 12.4677 11.7618 12.8655 12.1226 13.1812C12.5925 13.5923 13.1061 13.9683 13.5502 14.4124C14.1051 14.9673 14.7418 15.5223 15.3771 15.9811C15.5906 16.1353 15.7669 16.3335 15.9728 16.4952C16.0392 16.5474 16.3386 16.835 16.3303 16.835M9.18153 9.01105C9.16775 8.90082 9.11245 8.71403 9.06238 8.61389M24.8299 18.8176C24.7964 19.2187 24.7156 19.6434 24.818 20.0417C24.9577 20.5847 25.4832 20.9419 25.7878 21.3989C26.4444 22.3838 26.6152 23.9721 27.9167 24.4059M22.9139 21.2126C21.8749 21.2126 20.8345 21.1775 19.8004 21.2924C19.4206 21.3346 19.057 21.3318 18.6857 21.2422C18.5168 21.2014 18.3506 21.1594 18.1771 21.1594M4 6H17.5L20 9H21L29 1H41V2L26 17L40 31V32H27L21 26H20L14 32H1V31L15 17L4 6ZM10 8H16L20 12H21L30 3H36V4L21 19H20L10 9V8Z" stroke="#111111" stroke-width="2" stroke-linecap="round"/>
<path d="M73.874 6.67999C75.9107 6.67999 77.728 7.10299 79.326 7.94899C80.9554 8.79499 82.2244 10.0483 83.133 11.709C84.073 13.3697 84.543 15.375 84.543 17.725V33H79.232V18.524C79.232 16.2053 78.6524 14.435 77.493 13.213C76.3337 11.9597 74.7514 11.333 72.746 11.333C70.7407 11.333 69.1427 11.9597 67.952 13.213C66.7927 14.435 66.213 16.2053 66.213 18.524V33H60.902V18.524C60.902 16.2053 60.3224 14.435 59.163 13.213C58.0037 11.9597 56.4214 11.333 54.416 11.333C52.4107 11.333 50.8127 11.9597 49.622 13.213C48.4627 14.435 47.883 16.2053 47.883 18.524V33H42.525V7.10299H47.883V10.064C48.7604 8.99866 49.8727 8.16833 51.22 7.57299C52.5674 6.97766 54.0087 6.67999 55.544 6.67999C57.612 6.67999 59.4607 7.11866 61.09 7.99599C62.7194 8.87333 63.9727 10.1423 64.85 11.803C65.6334 10.2363 66.8554 8.99866 68.516 8.08999C70.1767 7.14999 71.9627 6.67999 73.874 6.67999Z" fill="#111111"/>
<path d="M110.396 19.417C110.396 20.3883 110.333 21.2657 110.208 22.049H90.421C90.5776 24.117 91.3453 25.7777 92.724 27.031C94.1026 28.2843 95.7946 28.911 97.8 28.911C100.683 28.911 102.719 27.7047 103.91 25.292H109.691C108.908 27.6733 107.482 29.6317 105.414 31.167C103.377 32.671 100.839 33.423 97.8 33.423C95.3246 33.423 93.1 32.8747 91.126 31.778C89.1833 30.65 87.648 29.0833 86.52 27.078C85.4233 25.0413 84.875 22.6913 84.875 20.028C84.875 17.3647 85.4076 15.0303 86.473 13.025C87.5696 10.9883 89.0893 9.42166 91.032 8.32499C93.006 7.22833 95.262 6.67999 97.8 6.67999C100.244 6.67999 102.422 7.21266 104.333 8.27799C106.244 9.34333 107.733 10.8473 108.798 12.79C109.863 14.7013 110.396 16.9103 110.396 19.417ZM104.803 17.725C104.772 15.751 104.067 14.1687 102.688 12.978C101.309 11.7873 99.6016 11.192 97.565 11.192C95.7163 11.192 94.134 11.7873 92.818 12.978C91.502 14.1373 90.7186 15.7197 90.468 17.725H104.803Z" fill="#111111"/>
<path d="M124.035 6.67999C126.071 6.67999 127.889 7.10299 129.487 7.94899C131.116 8.79499 132.385 10.0483 133.294 11.709C134.202 13.3697 134.657 15.375 134.657 17.725V33H129.346V18.524C129.346 16.2053 128.766 14.435 127.607 13.213C126.447 11.9597 124.865 11.333 122.86 11.333C120.854 11.333 119.256 11.9597 118.066 13.213C116.906 14.435 116.327 16.2053 116.327 18.524V33H110.969V7.10299H116.327V10.064C117.204 8.99866 118.316 8.16833 119.664 7.57299C121.042 6.97766 122.499 6.67999 124.035 6.67999Z" fill="#111111"/>
<path d="M160.244 7.10299V33H154.886V29.945C154.04 31.0103 152.928 31.8563 151.549 32.483C150.202 33.0783 148.761 33.376 147.225 33.376C145.189 33.376 143.356 32.953 141.726 32.107C140.128 31.261 138.859 30.0077 137.919 28.347C137.011 26.6863 136.556 24.681 136.556 22.331V7.10299H141.867V21.532C141.867 23.8507 142.447 25.6367 143.606 26.89C144.766 28.112 146.348 28.723 148.353 28.723C150.359 28.723 151.941 28.112 153.1 26.89C154.291 25.6367 154.886 23.8507 154.886 21.532V7.10299H160.244Z" fill="#111111"/>
</svg>
